G04 #@! TF.FileFunction,Legend,Top*
%FSLAX46Y46*%
G04 Gerber Fmt 4.6, Leading zero omitted, Abs format (unit mm)*
G04 Created by KiCad (PCBNEW 4.0.0-2.201511301921+6191~38~ubuntu15.10.1-stable) date Tue 01 Dec 2015 16:56:00 GMT*
%MOMM*%
G01*
G04 APERTURE LIST*
%ADD10C,0.100000*%
%ADD11C,0.150000*%
G04 APERTURE END LIST*
D10*
D11*
X150241000Y-108442760D02*
X150040340Y-108041440D01*
X150040340Y-108041440D02*
X149938740Y-107442000D01*
X149938740Y-107442000D02*
X150040340Y-106941620D01*
X150040340Y-106941620D02*
X150439120Y-106243120D01*
X150439120Y-106243120D02*
X151041100Y-105841800D01*
X151041100Y-105841800D02*
X151640540Y-105641140D01*
X151640540Y-105641140D02*
X158239460Y-105641140D01*
X158239460Y-105641140D02*
X158940500Y-105841800D01*
X158940500Y-105841800D02*
X159339280Y-106141520D01*
X159339280Y-106141520D02*
X159740600Y-106641900D01*
X159740600Y-106641900D02*
X159941260Y-107241340D01*
X159941260Y-107241340D02*
X159941260Y-107741720D01*
X159941260Y-107741720D02*
X159740600Y-108242100D01*
X159740600Y-108242100D02*
X159240220Y-108841540D01*
X159240220Y-108841540D02*
X158739840Y-109141260D01*
X158739840Y-109141260D02*
X158239460Y-109242860D01*
X158140400Y-109242860D02*
X151538940Y-109242860D01*
X151538940Y-109242860D02*
X151140160Y-109141260D01*
X151140160Y-109141260D02*
X150639780Y-108841540D01*
X150639780Y-108841540D02*
X150139400Y-108341160D01*
X158130240Y-109771180D02*
X158589980Y-109722920D01*
X158589980Y-109722920D02*
X158988760Y-109611160D01*
X158988760Y-109611160D02*
X159420560Y-109392720D01*
X159420560Y-109392720D02*
X159710120Y-109161580D01*
X159710120Y-109161580D02*
X160040320Y-108811060D01*
X160040320Y-108811060D02*
X160329880Y-108272580D01*
X160329880Y-108272580D02*
X160459420Y-107673140D01*
X160459420Y-107673140D02*
X160459420Y-107162600D01*
X160459420Y-107162600D02*
X160289240Y-106461560D01*
X160289240Y-106461560D02*
X159890460Y-105872280D01*
X159890460Y-105872280D02*
X159430720Y-105501440D01*
X159430720Y-105501440D02*
X159009080Y-105293160D01*
X159009080Y-105293160D02*
X158559500Y-105133140D01*
X158559500Y-105133140D02*
X158120080Y-105102660D01*
X150779480Y-105321100D02*
X150401020Y-105542080D01*
X150401020Y-105542080D02*
X150080980Y-105821480D01*
X150080980Y-105821480D02*
X149829520Y-106151680D01*
X149829520Y-106151680D02*
X149529800Y-106702860D01*
X149529800Y-106702860D02*
X149420580Y-107172760D01*
X149420580Y-107172760D02*
X149400260Y-107632500D01*
X149400260Y-107632500D02*
X149489160Y-108092240D01*
X149489160Y-108092240D02*
X149679660Y-108541820D01*
X149679660Y-108541820D02*
X150040340Y-109011720D01*
X150040340Y-109011720D02*
X150390860Y-109331760D01*
X150390860Y-109331760D02*
X150779480Y-109562900D01*
X150779480Y-109562900D02*
X151208740Y-109702600D01*
X151208740Y-109702600D02*
X151650700Y-109771180D01*
X158140400Y-105112820D02*
X151688800Y-105112820D01*
X151688800Y-105112820D02*
X151269700Y-105150920D01*
X151269700Y-105150920D02*
X150779480Y-105321100D01*
X158140400Y-109771180D02*
X151688800Y-109771180D01*
X163322000Y-110236000D02*
X163322000Y-99568000D01*
X169418000Y-99568000D02*
X169418000Y-110236000D01*
X169418000Y-110236000D02*
X163322000Y-110236000D01*
X169418000Y-99568000D02*
X163322000Y-99568000D01*
X163322000Y-104140000D02*
X163068000Y-104140000D01*
X163068000Y-104140000D02*
X163068000Y-105664000D01*
X163068000Y-105664000D02*
X163322000Y-105664000D01*
X139446000Y-107950000D02*
X142367000Y-107950000D01*
X139446000Y-106426000D02*
X142367000Y-106426000D01*
X142367000Y-106426000D02*
X142367000Y-107950000D01*
X139446000Y-107950000D02*
X139446000Y-106426000D01*
X137922000Y-107950000D02*
X137922000Y-108966000D01*
X137922000Y-108966000D02*
X144018000Y-108966000D01*
X144018000Y-108966000D02*
X144018000Y-107950000D01*
X137922000Y-105410000D02*
X137922000Y-106426000D01*
X137922000Y-105410000D02*
X144018000Y-105410000D01*
X144018000Y-105410000D02*
X144018000Y-106426000D01*
X133024571Y-103338190D02*
X133024571Y-103671524D01*
X133548381Y-103671524D02*
X132548381Y-103671524D01*
X132548381Y-103195333D01*
X132548381Y-102957238D02*
X132548381Y-102385809D01*
X133548381Y-102671524D02*
X132548381Y-102671524D01*
X133548381Y-102052476D02*
X132548381Y-102052476D01*
X132548381Y-101814381D01*
X132596000Y-101671523D01*
X132691238Y-101576285D01*
X132786476Y-101528666D01*
X132976952Y-101481047D01*
X133119810Y-101481047D01*
X133310286Y-101528666D01*
X133405524Y-101576285D01*
X133500762Y-101671523D01*
X133548381Y-101814381D01*
X133548381Y-102052476D01*
X133548381Y-101052476D02*
X132548381Y-101052476D01*
X141479047Y-101671381D02*
X141479047Y-101147571D01*
X141431428Y-101052333D01*
X141336190Y-101004714D01*
X141145713Y-101004714D01*
X141050475Y-101052333D01*
X141479047Y-101623762D02*
X141383809Y-101671381D01*
X141145713Y-101671381D01*
X141050475Y-101623762D01*
X141002856Y-101528524D01*
X141002856Y-101433286D01*
X141050475Y-101338048D01*
X141145713Y-101290429D01*
X141383809Y-101290429D01*
X141479047Y-101242810D01*
X141812380Y-101004714D02*
X142193332Y-101004714D01*
X141955237Y-100671381D02*
X141955237Y-101528524D01*
X142002856Y-101623762D01*
X142098094Y-101671381D01*
X142193332Y-101671381D01*
X142526666Y-101671381D02*
X142526666Y-101004714D01*
X142526666Y-101099952D02*
X142574285Y-101052333D01*
X142669523Y-101004714D01*
X142812381Y-101004714D01*
X142907619Y-101052333D01*
X142955238Y-101147571D01*
X142955238Y-101671381D01*
X142955238Y-101147571D02*
X143002857Y-101052333D01*
X143098095Y-101004714D01*
X143240952Y-101004714D01*
X143336190Y-101052333D01*
X143383809Y-101147571D01*
X143383809Y-101671381D01*
X144240952Y-101623762D02*
X144145714Y-101671381D01*
X143955237Y-101671381D01*
X143859999Y-101623762D01*
X143812380Y-101528524D01*
X143812380Y-101147571D01*
X143859999Y-101052333D01*
X143955237Y-101004714D01*
X144145714Y-101004714D01*
X144240952Y-101052333D01*
X144288571Y-101147571D01*
X144288571Y-101242810D01*
X143812380Y-101338048D01*
X145145714Y-101004714D02*
X145145714Y-101814238D01*
X145098095Y-101909476D01*
X145050476Y-101957095D01*
X144955237Y-102004714D01*
X144812380Y-102004714D01*
X144717142Y-101957095D01*
X145145714Y-101623762D02*
X145050476Y-101671381D01*
X144859999Y-101671381D01*
X144764761Y-101623762D01*
X144717142Y-101576143D01*
X144669523Y-101480905D01*
X144669523Y-101195190D01*
X144717142Y-101099952D01*
X144764761Y-101052333D01*
X144859999Y-101004714D01*
X145050476Y-101004714D01*
X145145714Y-101052333D01*
X146050476Y-101671381D02*
X146050476Y-101147571D01*
X146002857Y-101052333D01*
X145907619Y-101004714D01*
X145717142Y-101004714D01*
X145621904Y-101052333D01*
X146050476Y-101623762D02*
X145955238Y-101671381D01*
X145717142Y-101671381D01*
X145621904Y-101623762D01*
X145574285Y-101528524D01*
X145574285Y-101433286D01*
X145621904Y-101338048D01*
X145717142Y-101290429D01*
X145955238Y-101290429D01*
X146050476Y-101242810D01*
X146431428Y-100671381D02*
X147050476Y-100671381D01*
X146717142Y-101052333D01*
X146860000Y-101052333D01*
X146955238Y-101099952D01*
X147002857Y-101147571D01*
X147050476Y-101242810D01*
X147050476Y-101480905D01*
X147002857Y-101576143D01*
X146955238Y-101623762D01*
X146860000Y-101671381D01*
X146574285Y-101671381D01*
X146479047Y-101623762D01*
X146431428Y-101576143D01*
X147431428Y-100766619D02*
X147479047Y-100719000D01*
X147574285Y-100671381D01*
X147812381Y-100671381D01*
X147907619Y-100719000D01*
X147955238Y-100766619D01*
X148002857Y-100861857D01*
X148002857Y-100957095D01*
X147955238Y-101099952D01*
X147383809Y-101671381D01*
X148002857Y-101671381D01*
X148574285Y-101099952D02*
X148479047Y-101052333D01*
X148431428Y-101004714D01*
X148383809Y-100909476D01*
X148383809Y-100861857D01*
X148431428Y-100766619D01*
X148479047Y-100719000D01*
X148574285Y-100671381D01*
X148764762Y-100671381D01*
X148860000Y-100719000D01*
X148907619Y-100766619D01*
X148955238Y-100861857D01*
X148955238Y-100909476D01*
X148907619Y-101004714D01*
X148860000Y-101052333D01*
X148764762Y-101099952D01*
X148574285Y-101099952D01*
X148479047Y-101147571D01*
X148431428Y-101195190D01*
X148383809Y-101290429D01*
X148383809Y-101480905D01*
X148431428Y-101576143D01*
X148479047Y-101623762D01*
X148574285Y-101671381D01*
X148764762Y-101671381D01*
X148860000Y-101623762D01*
X148907619Y-101576143D01*
X148955238Y-101480905D01*
X148955238Y-101290429D01*
X148907619Y-101195190D01*
X148860000Y-101147571D01*
X148764762Y-101099952D01*
X149145714Y-101766619D02*
X149907619Y-101766619D01*
X150145714Y-101004714D02*
X150145714Y-102004714D01*
X150145714Y-101052333D02*
X150240952Y-101004714D01*
X150431429Y-101004714D01*
X150526667Y-101052333D01*
X150574286Y-101099952D01*
X150621905Y-101195190D01*
X150621905Y-101480905D01*
X150574286Y-101576143D01*
X150526667Y-101623762D01*
X150431429Y-101671381D01*
X150240952Y-101671381D01*
X150145714Y-101623762D01*
X151050476Y-101671381D02*
X151050476Y-101004714D01*
X151050476Y-101195190D02*
X151098095Y-101099952D01*
X151145714Y-101052333D01*
X151240952Y-101004714D01*
X151336191Y-101004714D01*
X151812381Y-101671381D02*
X151717143Y-101623762D01*
X151669524Y-101576143D01*
X151621905Y-101480905D01*
X151621905Y-101195190D01*
X151669524Y-101099952D01*
X151717143Y-101052333D01*
X151812381Y-101004714D01*
X151955239Y-101004714D01*
X152050477Y-101052333D01*
X152098096Y-101099952D01*
X152145715Y-101195190D01*
X152145715Y-101480905D01*
X152098096Y-101576143D01*
X152050477Y-101623762D01*
X151955239Y-101671381D01*
X151812381Y-101671381D01*
X153002858Y-101004714D02*
X153002858Y-101814238D01*
X152955239Y-101909476D01*
X152907620Y-101957095D01*
X152812381Y-102004714D01*
X152669524Y-102004714D01*
X152574286Y-101957095D01*
X153002858Y-101623762D02*
X152907620Y-101671381D01*
X152717143Y-101671381D01*
X152621905Y-101623762D01*
X152574286Y-101576143D01*
X152526667Y-101480905D01*
X152526667Y-101195190D01*
X152574286Y-101099952D01*
X152621905Y-101052333D01*
X152717143Y-101004714D01*
X152907620Y-101004714D01*
X153002858Y-101052333D01*
X153479048Y-101671381D02*
X153479048Y-101004714D01*
X153479048Y-101195190D02*
X153526667Y-101099952D01*
X153574286Y-101052333D01*
X153669524Y-101004714D01*
X153764763Y-101004714D01*
X154526668Y-101671381D02*
X154526668Y-101147571D01*
X154479049Y-101052333D01*
X154383811Y-101004714D01*
X154193334Y-101004714D01*
X154098096Y-101052333D01*
X154526668Y-101623762D02*
X154431430Y-101671381D01*
X154193334Y-101671381D01*
X154098096Y-101623762D01*
X154050477Y-101528524D01*
X154050477Y-101433286D01*
X154098096Y-101338048D01*
X154193334Y-101290429D01*
X154431430Y-101290429D01*
X154526668Y-101242810D01*
X155002858Y-101671381D02*
X155002858Y-101004714D01*
X155002858Y-101099952D02*
X155050477Y-101052333D01*
X155145715Y-101004714D01*
X155288573Y-101004714D01*
X155383811Y-101052333D01*
X155431430Y-101147571D01*
X155431430Y-101671381D01*
X155431430Y-101147571D02*
X155479049Y-101052333D01*
X155574287Y-101004714D01*
X155717144Y-101004714D01*
X155812382Y-101052333D01*
X155860001Y-101147571D01*
X155860001Y-101671381D01*
X156336191Y-101671381D02*
X156336191Y-101004714D01*
X156336191Y-101099952D02*
X156383810Y-101052333D01*
X156479048Y-101004714D01*
X156621906Y-101004714D01*
X156717144Y-101052333D01*
X156764763Y-101147571D01*
X156764763Y-101671381D01*
X156764763Y-101147571D02*
X156812382Y-101052333D01*
X156907620Y-101004714D01*
X157050477Y-101004714D01*
X157145715Y-101052333D01*
X157193334Y-101147571D01*
X157193334Y-101671381D01*
X158050477Y-101623762D02*
X157955239Y-101671381D01*
X157764762Y-101671381D01*
X157669524Y-101623762D01*
X157621905Y-101528524D01*
X157621905Y-101147571D01*
X157669524Y-101052333D01*
X157764762Y-101004714D01*
X157955239Y-101004714D01*
X158050477Y-101052333D01*
X158098096Y-101147571D01*
X158098096Y-101242810D01*
X157621905Y-101338048D01*
X158526667Y-101671381D02*
X158526667Y-101004714D01*
X158526667Y-101195190D02*
X158574286Y-101099952D01*
X158621905Y-101052333D01*
X158717143Y-101004714D01*
X158812382Y-101004714D01*
X132816666Y-98235333D02*
X132850000Y-98202000D01*
X132916666Y-98168667D01*
X133083333Y-98168667D01*
X133150000Y-98202000D01*
X133183333Y-98235333D01*
X133216666Y-98302000D01*
X133216666Y-98368667D01*
X133183333Y-98468667D01*
X132783333Y-98868667D01*
X133216666Y-98868667D01*
X133616667Y-98468667D02*
X133550000Y-98435333D01*
X133516667Y-98402000D01*
X133483333Y-98335333D01*
X133483333Y-98302000D01*
X133516667Y-98235333D01*
X133550000Y-98202000D01*
X133616667Y-98168667D01*
X133750000Y-98168667D01*
X133816667Y-98202000D01*
X133850000Y-98235333D01*
X133883333Y-98302000D01*
X133883333Y-98335333D01*
X133850000Y-98402000D01*
X133816667Y-98435333D01*
X133750000Y-98468667D01*
X133616667Y-98468667D01*
X133550000Y-98502000D01*
X133516667Y-98535333D01*
X133483333Y-98602000D01*
X133483333Y-98735333D01*
X133516667Y-98802000D01*
X133550000Y-98835333D01*
X133616667Y-98868667D01*
X133750000Y-98868667D01*
X133816667Y-98835333D01*
X133850000Y-98802000D01*
X133883333Y-98735333D01*
X133883333Y-98602000D01*
X133850000Y-98535333D01*
X133816667Y-98502000D01*
X133750000Y-98468667D01*
X135356666Y-98235333D02*
X135390000Y-98202000D01*
X135456666Y-98168667D01*
X135623333Y-98168667D01*
X135690000Y-98202000D01*
X135723333Y-98235333D01*
X135756666Y-98302000D01*
X135756666Y-98368667D01*
X135723333Y-98468667D01*
X135323333Y-98868667D01*
X135756666Y-98868667D01*
X135990000Y-98168667D02*
X136456667Y-98168667D01*
X136156667Y-98868667D01*
X137896666Y-98235333D02*
X137930000Y-98202000D01*
X137996666Y-98168667D01*
X138163333Y-98168667D01*
X138230000Y-98202000D01*
X138263333Y-98235333D01*
X138296666Y-98302000D01*
X138296666Y-98368667D01*
X138263333Y-98468667D01*
X137863333Y-98868667D01*
X138296666Y-98868667D01*
X138896667Y-98168667D02*
X138763333Y-98168667D01*
X138696667Y-98202000D01*
X138663333Y-98235333D01*
X138596667Y-98335333D01*
X138563333Y-98468667D01*
X138563333Y-98735333D01*
X138596667Y-98802000D01*
X138630000Y-98835333D01*
X138696667Y-98868667D01*
X138830000Y-98868667D01*
X138896667Y-98835333D01*
X138930000Y-98802000D01*
X138963333Y-98735333D01*
X138963333Y-98568667D01*
X138930000Y-98502000D01*
X138896667Y-98468667D01*
X138830000Y-98435333D01*
X138696667Y-98435333D01*
X138630000Y-98468667D01*
X138596667Y-98502000D01*
X138563333Y-98568667D01*
X140436666Y-98235333D02*
X140470000Y-98202000D01*
X140536666Y-98168667D01*
X140703333Y-98168667D01*
X140770000Y-98202000D01*
X140803333Y-98235333D01*
X140836666Y-98302000D01*
X140836666Y-98368667D01*
X140803333Y-98468667D01*
X140403333Y-98868667D01*
X140836666Y-98868667D01*
X141470000Y-98168667D02*
X141136667Y-98168667D01*
X141103333Y-98502000D01*
X141136667Y-98468667D01*
X141203333Y-98435333D01*
X141370000Y-98435333D01*
X141436667Y-98468667D01*
X141470000Y-98502000D01*
X141503333Y-98568667D01*
X141503333Y-98735333D01*
X141470000Y-98802000D01*
X141436667Y-98835333D01*
X141370000Y-98868667D01*
X141203333Y-98868667D01*
X141136667Y-98835333D01*
X141103333Y-98802000D01*
X142976666Y-98235333D02*
X143010000Y-98202000D01*
X143076666Y-98168667D01*
X143243333Y-98168667D01*
X143310000Y-98202000D01*
X143343333Y-98235333D01*
X143376666Y-98302000D01*
X143376666Y-98368667D01*
X143343333Y-98468667D01*
X142943333Y-98868667D01*
X143376666Y-98868667D01*
X143976667Y-98402000D02*
X143976667Y-98868667D01*
X143810000Y-98135333D02*
X143643333Y-98635333D01*
X144076667Y-98635333D01*
X145516666Y-98235333D02*
X145550000Y-98202000D01*
X145616666Y-98168667D01*
X145783333Y-98168667D01*
X145850000Y-98202000D01*
X145883333Y-98235333D01*
X145916666Y-98302000D01*
X145916666Y-98368667D01*
X145883333Y-98468667D01*
X145483333Y-98868667D01*
X145916666Y-98868667D01*
X146150000Y-98168667D02*
X146583333Y-98168667D01*
X146350000Y-98435333D01*
X146450000Y-98435333D01*
X146516667Y-98468667D01*
X146550000Y-98502000D01*
X146583333Y-98568667D01*
X146583333Y-98735333D01*
X146550000Y-98802000D01*
X146516667Y-98835333D01*
X146450000Y-98868667D01*
X146250000Y-98868667D01*
X146183333Y-98835333D01*
X146150000Y-98802000D01*
X148056666Y-99632333D02*
X148090000Y-99599000D01*
X148156666Y-99565667D01*
X148323333Y-99565667D01*
X148390000Y-99599000D01*
X148423333Y-99632333D01*
X148456666Y-99699000D01*
X148456666Y-99765667D01*
X148423333Y-99865667D01*
X148023333Y-100265667D01*
X148456666Y-100265667D01*
X148723333Y-99632333D02*
X148756667Y-99599000D01*
X148823333Y-99565667D01*
X148990000Y-99565667D01*
X149056667Y-99599000D01*
X149090000Y-99632333D01*
X149123333Y-99699000D01*
X149123333Y-99765667D01*
X149090000Y-99865667D01*
X148690000Y-100265667D01*
X149123333Y-100265667D01*
X150596666Y-98235333D02*
X150630000Y-98202000D01*
X150696666Y-98168667D01*
X150863333Y-98168667D01*
X150930000Y-98202000D01*
X150963333Y-98235333D01*
X150996666Y-98302000D01*
X150996666Y-98368667D01*
X150963333Y-98468667D01*
X150563333Y-98868667D01*
X150996666Y-98868667D01*
X151663333Y-98868667D02*
X151263333Y-98868667D01*
X151463333Y-98868667D02*
X151463333Y-98168667D01*
X151396667Y-98268667D01*
X151330000Y-98335333D01*
X151263333Y-98368667D01*
X153136666Y-99632333D02*
X153170000Y-99599000D01*
X153236666Y-99565667D01*
X153403333Y-99565667D01*
X153470000Y-99599000D01*
X153503333Y-99632333D01*
X153536666Y-99699000D01*
X153536666Y-99765667D01*
X153503333Y-99865667D01*
X153103333Y-100265667D01*
X153536666Y-100265667D01*
X153970000Y-99565667D02*
X154036667Y-99565667D01*
X154103333Y-99599000D01*
X154136667Y-99632333D01*
X154170000Y-99699000D01*
X154203333Y-99832333D01*
X154203333Y-99999000D01*
X154170000Y-100132333D01*
X154136667Y-100199000D01*
X154103333Y-100232333D01*
X154036667Y-100265667D01*
X153970000Y-100265667D01*
X153903333Y-100232333D01*
X153870000Y-100199000D01*
X153836667Y-100132333D01*
X153803333Y-99999000D01*
X153803333Y-99832333D01*
X153836667Y-99699000D01*
X153870000Y-99632333D01*
X153903333Y-99599000D01*
X153970000Y-99565667D01*
X156076666Y-100265667D02*
X155676666Y-100265667D01*
X155876666Y-100265667D02*
X155876666Y-99565667D01*
X155810000Y-99665667D01*
X155743333Y-99732333D01*
X155676666Y-99765667D01*
X156410000Y-100265667D02*
X156543333Y-100265667D01*
X156610000Y-100232333D01*
X156643333Y-100199000D01*
X156710000Y-100099000D01*
X156743333Y-99965667D01*
X156743333Y-99699000D01*
X156710000Y-99632333D01*
X156676667Y-99599000D01*
X156610000Y-99565667D01*
X156476667Y-99565667D01*
X156410000Y-99599000D01*
X156376667Y-99632333D01*
X156343333Y-99699000D01*
X156343333Y-99865667D01*
X156376667Y-99932333D01*
X156410000Y-99965667D01*
X156476667Y-99999000D01*
X156610000Y-99999000D01*
X156676667Y-99965667D01*
X156710000Y-99932333D01*
X156743333Y-99865667D01*
X158616666Y-100265667D02*
X158216666Y-100265667D01*
X158416666Y-100265667D02*
X158416666Y-99565667D01*
X158350000Y-99665667D01*
X158283333Y-99732333D01*
X158216666Y-99765667D01*
X159016667Y-99865667D02*
X158950000Y-99832333D01*
X158916667Y-99799000D01*
X158883333Y-99732333D01*
X158883333Y-99699000D01*
X158916667Y-99632333D01*
X158950000Y-99599000D01*
X159016667Y-99565667D01*
X159150000Y-99565667D01*
X159216667Y-99599000D01*
X159250000Y-99632333D01*
X159283333Y-99699000D01*
X159283333Y-99732333D01*
X159250000Y-99799000D01*
X159216667Y-99832333D01*
X159150000Y-99865667D01*
X159016667Y-99865667D01*
X158950000Y-99899000D01*
X158916667Y-99932333D01*
X158883333Y-99999000D01*
X158883333Y-100132333D01*
X158916667Y-100199000D01*
X158950000Y-100232333D01*
X159016667Y-100265667D01*
X159150000Y-100265667D01*
X159216667Y-100232333D01*
X159250000Y-100199000D01*
X159283333Y-100132333D01*
X159283333Y-99999000D01*
X159250000Y-99932333D01*
X159216667Y-99899000D01*
X159150000Y-99865667D01*
X161156666Y-100265667D02*
X160756666Y-100265667D01*
X160956666Y-100265667D02*
X160956666Y-99565667D01*
X160890000Y-99665667D01*
X160823333Y-99732333D01*
X160756666Y-99765667D01*
X161390000Y-99565667D02*
X161856667Y-99565667D01*
X161556667Y-100265667D01*
X163696666Y-98868667D02*
X163296666Y-98868667D01*
X163496666Y-98868667D02*
X163496666Y-98168667D01*
X163430000Y-98268667D01*
X163363333Y-98335333D01*
X163296666Y-98368667D01*
X164296667Y-98168667D02*
X164163333Y-98168667D01*
X164096667Y-98202000D01*
X164063333Y-98235333D01*
X163996667Y-98335333D01*
X163963333Y-98468667D01*
X163963333Y-98735333D01*
X163996667Y-98802000D01*
X164030000Y-98835333D01*
X164096667Y-98868667D01*
X164230000Y-98868667D01*
X164296667Y-98835333D01*
X164330000Y-98802000D01*
X164363333Y-98735333D01*
X164363333Y-98568667D01*
X164330000Y-98502000D01*
X164296667Y-98468667D01*
X164230000Y-98435333D01*
X164096667Y-98435333D01*
X164030000Y-98468667D01*
X163996667Y-98502000D01*
X163963333Y-98568667D01*
X166236666Y-98868667D02*
X165836666Y-98868667D01*
X166036666Y-98868667D02*
X166036666Y-98168667D01*
X165970000Y-98268667D01*
X165903333Y-98335333D01*
X165836666Y-98368667D01*
X166870000Y-98168667D02*
X166536667Y-98168667D01*
X166503333Y-98502000D01*
X166536667Y-98468667D01*
X166603333Y-98435333D01*
X166770000Y-98435333D01*
X166836667Y-98468667D01*
X166870000Y-98502000D01*
X166903333Y-98568667D01*
X166903333Y-98735333D01*
X166870000Y-98802000D01*
X166836667Y-98835333D01*
X166770000Y-98868667D01*
X166603333Y-98868667D01*
X166536667Y-98835333D01*
X166503333Y-98802000D01*
X166236666Y-111568667D02*
X165836666Y-111568667D01*
X166036666Y-111568667D02*
X166036666Y-110868667D01*
X165970000Y-110968667D01*
X165903333Y-111035333D01*
X165836666Y-111068667D01*
X166836667Y-111102000D02*
X166836667Y-111568667D01*
X166670000Y-110835333D02*
X166503333Y-111335333D01*
X166936667Y-111335333D01*
X163696666Y-111568667D02*
X163296666Y-111568667D01*
X163496666Y-111568667D02*
X163496666Y-110868667D01*
X163430000Y-110968667D01*
X163363333Y-111035333D01*
X163296666Y-111068667D01*
X163930000Y-110868667D02*
X164363333Y-110868667D01*
X164130000Y-111135333D01*
X164230000Y-111135333D01*
X164296667Y-111168667D01*
X164330000Y-111202000D01*
X164363333Y-111268667D01*
X164363333Y-111435333D01*
X164330000Y-111502000D01*
X164296667Y-111535333D01*
X164230000Y-111568667D01*
X164030000Y-111568667D01*
X163963333Y-111535333D01*
X163930000Y-111502000D01*
X161156666Y-111568667D02*
X160756666Y-111568667D01*
X160956666Y-111568667D02*
X160956666Y-110868667D01*
X160890000Y-110968667D01*
X160823333Y-111035333D01*
X160756666Y-111068667D01*
X161423333Y-110935333D02*
X161456667Y-110902000D01*
X161523333Y-110868667D01*
X161690000Y-110868667D01*
X161756667Y-110902000D01*
X161790000Y-110935333D01*
X161823333Y-111002000D01*
X161823333Y-111068667D01*
X161790000Y-111168667D01*
X161390000Y-111568667D01*
X161823333Y-111568667D01*
X158616666Y-111568667D02*
X158216666Y-111568667D01*
X158416666Y-111568667D02*
X158416666Y-110868667D01*
X158350000Y-110968667D01*
X158283333Y-111035333D01*
X158216666Y-111068667D01*
X159283333Y-111568667D02*
X158883333Y-111568667D01*
X159083333Y-111568667D02*
X159083333Y-110868667D01*
X159016667Y-110968667D01*
X158950000Y-111035333D01*
X158883333Y-111068667D01*
X156076666Y-110171667D02*
X155676666Y-110171667D01*
X155876666Y-110171667D02*
X155876666Y-109471667D01*
X155810000Y-109571667D01*
X155743333Y-109638333D01*
X155676666Y-109671667D01*
X156510000Y-109471667D02*
X156576667Y-109471667D01*
X156643333Y-109505000D01*
X156676667Y-109538333D01*
X156710000Y-109605000D01*
X156743333Y-109738333D01*
X156743333Y-109905000D01*
X156710000Y-110038333D01*
X156676667Y-110105000D01*
X156643333Y-110138333D01*
X156576667Y-110171667D01*
X156510000Y-110171667D01*
X156443333Y-110138333D01*
X156410000Y-110105000D01*
X156376667Y-110038333D01*
X156343333Y-109905000D01*
X156343333Y-109738333D01*
X156376667Y-109605000D01*
X156410000Y-109538333D01*
X156443333Y-109505000D01*
X156510000Y-109471667D01*
X153536667Y-110171667D02*
X153670000Y-110171667D01*
X153736667Y-110138333D01*
X153770000Y-110105000D01*
X153836667Y-110005000D01*
X153870000Y-109871667D01*
X153870000Y-109605000D01*
X153836667Y-109538333D01*
X153803334Y-109505000D01*
X153736667Y-109471667D01*
X153603334Y-109471667D01*
X153536667Y-109505000D01*
X153503334Y-109538333D01*
X153470000Y-109605000D01*
X153470000Y-109771667D01*
X153503334Y-109838333D01*
X153536667Y-109871667D01*
X153603334Y-109905000D01*
X153736667Y-109905000D01*
X153803334Y-109871667D01*
X153836667Y-109838333D01*
X153870000Y-109771667D01*
X146183334Y-110868667D02*
X146050000Y-110868667D01*
X145983334Y-110902000D01*
X145950000Y-110935333D01*
X145883334Y-111035333D01*
X145850000Y-111168667D01*
X145850000Y-111435333D01*
X145883334Y-111502000D01*
X145916667Y-111535333D01*
X145983334Y-111568667D01*
X146116667Y-111568667D01*
X146183334Y-111535333D01*
X146216667Y-111502000D01*
X146250000Y-111435333D01*
X146250000Y-111268667D01*
X146216667Y-111202000D01*
X146183334Y-111168667D01*
X146116667Y-111135333D01*
X145983334Y-111135333D01*
X145916667Y-111168667D01*
X145883334Y-111202000D01*
X145850000Y-111268667D01*
X143676667Y-110868667D02*
X143343334Y-110868667D01*
X143310000Y-111202000D01*
X143343334Y-111168667D01*
X143410000Y-111135333D01*
X143576667Y-111135333D01*
X143643334Y-111168667D01*
X143676667Y-111202000D01*
X143710000Y-111268667D01*
X143710000Y-111435333D01*
X143676667Y-111502000D01*
X143643334Y-111535333D01*
X143576667Y-111568667D01*
X143410000Y-111568667D01*
X143343334Y-111535333D01*
X143310000Y-111502000D01*
X141103334Y-111102000D02*
X141103334Y-111568667D01*
X140936667Y-110835333D02*
X140770000Y-111335333D01*
X141203334Y-111335333D01*
X138196667Y-109471667D02*
X138630000Y-109471667D01*
X138396667Y-109738333D01*
X138496667Y-109738333D01*
X138563334Y-109771667D01*
X138596667Y-109805000D01*
X138630000Y-109871667D01*
X138630000Y-110038333D01*
X138596667Y-110105000D01*
X138563334Y-110138333D01*
X138496667Y-110171667D01*
X138296667Y-110171667D01*
X138230000Y-110138333D01*
X138196667Y-110105000D01*
X135690000Y-109538333D02*
X135723334Y-109505000D01*
X135790000Y-109471667D01*
X135956667Y-109471667D01*
X136023334Y-109505000D01*
X136056667Y-109538333D01*
X136090000Y-109605000D01*
X136090000Y-109671667D01*
X136056667Y-109771667D01*
X135656667Y-110171667D01*
X136090000Y-110171667D01*
X133550000Y-110171667D02*
X133150000Y-110171667D01*
X133350000Y-110171667D02*
X133350000Y-109471667D01*
X133283334Y-109571667D01*
X133216667Y-109638333D01*
X133150000Y-109671667D01*
X151063334Y-109771667D02*
X150996667Y-109738333D01*
X150963334Y-109705000D01*
X150930000Y-109638333D01*
X150930000Y-109605000D01*
X150963334Y-109538333D01*
X150996667Y-109505000D01*
X151063334Y-109471667D01*
X151196667Y-109471667D01*
X151263334Y-109505000D01*
X151296667Y-109538333D01*
X151330000Y-109605000D01*
X151330000Y-109638333D01*
X151296667Y-109705000D01*
X151263334Y-109738333D01*
X151196667Y-109771667D01*
X151063334Y-109771667D01*
X150996667Y-109805000D01*
X150963334Y-109838333D01*
X150930000Y-109905000D01*
X150930000Y-110038333D01*
X150963334Y-110105000D01*
X150996667Y-110138333D01*
X151063334Y-110171667D01*
X151196667Y-110171667D01*
X151263334Y-110138333D01*
X151296667Y-110105000D01*
X151330000Y-110038333D01*
X151330000Y-109905000D01*
X151296667Y-109838333D01*
X151263334Y-109805000D01*
X151196667Y-109771667D01*
X148356667Y-109471667D02*
X148823334Y-109471667D01*
X148523334Y-110171667D01*
M02*
