G04 #@! TF.FileFunction,Copper,L1,Top,Signal*
%FSLAX46Y46*%
G04 Gerber Fmt 4.6, Leading zero omitted, Abs format (unit mm)*
G04 Created by KiCad (PCBNEW 4.0.0-rc2-stable) date Tue 17 Nov 2015 14:10:44 GMT*
%MOMM*%
G01*
G04 APERTURE LIST*
%ADD10C,0.100000*%
%ADD11C,1.400000*%
%ADD12C,1.501140*%
%ADD13C,1.524000*%
%ADD14C,1.600000*%
%ADD15C,1.700000*%
%ADD16R,1.300000X1.300000*%
%ADD17C,1.300000*%
%ADD18C,0.250000*%
G04 APERTURE END LIST*
D10*
D11*
X130810000Y-103632000D03*
X130810000Y-106172000D03*
X130810000Y-101092000D03*
X130810000Y-98552000D03*
X130810000Y-108712000D03*
X130810000Y-111252000D03*
D12*
X157380940Y-107442000D03*
X152499060Y-107442000D03*
D11*
X148590000Y-111252000D03*
X151130000Y-111252000D03*
X148590000Y-98552000D03*
X153670000Y-98552000D03*
X133350000Y-111252000D03*
X156210000Y-98552000D03*
X158750000Y-98552000D03*
X161290000Y-98552000D03*
X135890000Y-111252000D03*
X138430000Y-111252000D03*
D13*
X153670000Y-111252000D03*
X156210000Y-111252000D03*
D14*
X167640000Y-102362000D03*
X167640000Y-104902000D03*
X165100000Y-104902000D03*
X165100000Y-102362000D03*
X167640000Y-107442000D03*
X165100000Y-107442000D03*
D15*
X137668000Y-107188000D03*
X144272000Y-107188000D03*
D16*
X146812000Y-103378000D03*
D17*
X149312000Y-103378000D03*
D16*
X147574000Y-106426000D03*
D17*
X147574000Y-108926000D03*
D16*
X134620000Y-106426000D03*
D17*
X134620000Y-108926000D03*
D18*
X149312000Y-103378000D02*
X149606000Y-103378000D01*
X149606000Y-103378000D02*
X152146000Y-105918000D01*
X152146000Y-105918000D02*
X155856940Y-105918000D01*
X155856940Y-105918000D02*
X157380940Y-107442000D01*
X156210000Y-111252000D02*
X156210000Y-108612940D01*
X156210000Y-108612940D02*
X157380940Y-107442000D01*
X152499060Y-107442000D02*
X149058000Y-107442000D01*
X149058000Y-107442000D02*
X147574000Y-108926000D01*
X153670000Y-111252000D02*
X153670000Y-108612940D01*
X153670000Y-108612940D02*
X152499060Y-107442000D01*
X130810000Y-111252000D02*
X131318000Y-111252000D01*
X131318000Y-111252000D02*
X133350000Y-109220000D01*
X133350000Y-109220000D02*
X133350000Y-107696000D01*
X133350000Y-107696000D02*
X134620000Y-106426000D01*
X137668000Y-107188000D02*
X137668000Y-106426000D01*
X137668000Y-106426000D02*
X136144000Y-104902000D01*
X133350000Y-111252000D02*
X133858000Y-111252000D01*
X133858000Y-111252000D02*
X135128000Y-109982000D01*
X160782000Y-107442000D02*
X165100000Y-107442000D01*
X153924000Y-100584000D02*
X160782000Y-107442000D01*
X147828000Y-100584000D02*
X153924000Y-100584000D01*
X147066000Y-99822000D02*
X147828000Y-100584000D01*
X129540000Y-99822000D02*
X147066000Y-99822000D01*
X128778000Y-100584000D02*
X129540000Y-99822000D01*
X128778000Y-108712000D02*
X128778000Y-100584000D01*
X130048000Y-109982000D02*
X128778000Y-108712000D01*
X131318000Y-109982000D02*
X130048000Y-109982000D01*
X132334000Y-108966000D02*
X131318000Y-109982000D01*
X132334000Y-106426000D02*
X132334000Y-108966000D01*
X133858000Y-104902000D02*
X132334000Y-106426000D01*
X138684000Y-104902000D02*
X136144000Y-104902000D01*
X136144000Y-104902000D02*
X135636000Y-104902000D01*
X135636000Y-104902000D02*
X133858000Y-104902000D01*
X139446000Y-105664000D02*
X138684000Y-104902000D01*
X139446000Y-107950000D02*
X139446000Y-105664000D01*
X138430000Y-108966000D02*
X139446000Y-107950000D01*
X137160000Y-108966000D02*
X138430000Y-108966000D01*
X136144000Y-109982000D02*
X137160000Y-108966000D01*
X135128000Y-109982000D02*
X136144000Y-109982000D01*
X133350000Y-111252000D02*
X133350000Y-110196000D01*
X133350000Y-110196000D02*
X134620000Y-108926000D01*
X130810000Y-103632000D02*
X132334000Y-102108000D01*
X145034000Y-111252000D02*
X147066000Y-111252000D01*
X142748000Y-108966000D02*
X145034000Y-111252000D01*
X142748000Y-105156000D02*
X142748000Y-108966000D01*
X139700000Y-102108000D02*
X142748000Y-105156000D01*
X132334000Y-102108000D02*
X139700000Y-102108000D01*
X166370000Y-105410000D02*
X166370000Y-108712000D01*
X146050000Y-110490000D02*
X146812000Y-111252000D01*
X146050000Y-106934000D02*
X146050000Y-110490000D01*
X145288000Y-106172000D02*
X146050000Y-106934000D01*
X145288000Y-102616000D02*
X145288000Y-106172000D01*
X146050000Y-101854000D02*
X145288000Y-102616000D01*
X153670000Y-101854000D02*
X146050000Y-101854000D01*
X161290000Y-109474000D02*
X153670000Y-101854000D01*
X165608000Y-109474000D02*
X161290000Y-109474000D01*
X166370000Y-108712000D02*
X165608000Y-109474000D01*
X153670000Y-98552000D02*
X153924000Y-98552000D01*
X167640000Y-102362000D02*
X167640000Y-102616000D01*
X167640000Y-102616000D02*
X166370000Y-103886000D01*
X166370000Y-103886000D02*
X166370000Y-105410000D01*
X166370000Y-105410000D02*
X166370000Y-105664000D01*
X166370000Y-105664000D02*
X165862000Y-106172000D01*
X165862000Y-106172000D02*
X161290000Y-106172000D01*
X161290000Y-106172000D02*
X153670000Y-98552000D01*
X146812000Y-111252000D02*
X147066000Y-111252000D01*
X147066000Y-111252000D02*
X148590000Y-111252000D01*
X167640000Y-104902000D02*
X168148000Y-104902000D01*
X168148000Y-104902000D02*
X169164000Y-103886000D01*
X169164000Y-103886000D02*
X169164000Y-101346000D01*
X169164000Y-101346000D02*
X167894000Y-100076000D01*
X167894000Y-100076000D02*
X162814000Y-100076000D01*
X162814000Y-100076000D02*
X161290000Y-98552000D01*
X165100000Y-104902000D02*
X162560000Y-104902000D01*
X162560000Y-104902000D02*
X156210000Y-98552000D01*
X156210000Y-98552000D02*
X155702000Y-98552000D01*
X165100000Y-102362000D02*
X162560000Y-102362000D01*
X162560000Y-102362000D02*
X158750000Y-98552000D01*
X130810000Y-106172000D02*
X131064000Y-106172000D01*
X131064000Y-106172000D02*
X133604000Y-103632000D01*
X133604000Y-103632000D02*
X138938000Y-103632000D01*
X138938000Y-103632000D02*
X140970000Y-105664000D01*
X140970000Y-105664000D02*
X140970000Y-107950000D01*
X140970000Y-107950000D02*
X139192000Y-109728000D01*
X139192000Y-109728000D02*
X137414000Y-109728000D01*
X137414000Y-109728000D02*
X135890000Y-111252000D01*
X130810000Y-108712000D02*
X130810000Y-108458000D01*
X130810000Y-108458000D02*
X129540000Y-107188000D01*
X141224000Y-111252000D02*
X138430000Y-111252000D01*
X141732000Y-110744000D02*
X141224000Y-111252000D01*
X141732000Y-105410000D02*
X141732000Y-110744000D01*
X139192000Y-102870000D02*
X141732000Y-105410000D01*
X133096000Y-102870000D02*
X139192000Y-102870000D01*
X132334000Y-103632000D02*
X133096000Y-102870000D01*
X132334000Y-103886000D02*
X132334000Y-103632000D01*
X131318000Y-104902000D02*
X132334000Y-103886000D01*
X130048000Y-104902000D02*
X131318000Y-104902000D01*
X129540000Y-105410000D02*
X130048000Y-104902000D01*
X129540000Y-107188000D02*
X129540000Y-105410000D01*
X130810000Y-108712000D02*
X130556000Y-108712000D01*
M02*
