M48
METRIC,TZ
T1C0.800
T2C0.800
T3C1.000
T4C1.100
%
G90
G05
T1
X130810Y-98552
X130810Y-101092
X130810Y-103632
X130810Y-106172
X130810Y-108712
X130810Y-111252
X134620Y-106426
X146812Y-103378
X147574Y-106426
T2
X134620Y-108926
X147574Y-108926
X149312Y-103378
X152499Y-107442
X157381Y-107442
T3
X133350Y-111252
X135890Y-111252
X138430Y-111252
X148590Y-98552
X148590Y-111252
X151130Y-111252
X153670Y-98552
X153670Y-111252
X156210Y-98552
X156210Y-111252
X158750Y-98552
X161290Y-98552
X165100Y-102362
X165100Y-104902
X165100Y-107442
X167640Y-102362
X167640Y-104902
X167640Y-107442
T4
X137668Y-107188
X144272Y-107188
T0
M30
