G04 #@! TF.FileFunction,Legend,Bot*
%FSLAX46Y46*%
G04 Gerber Fmt 4.6, Leading zero omitted, Abs format (unit mm)*
G04 Created by KiCad (PCBNEW 4.0.0-2.201511301921+6191~38~ubuntu15.10.1-stable) date Tue 01 Dec 2015 16:56:00 GMT*
%MOMM*%
G01*
G04 APERTURE LIST*
%ADD10C,0.100000*%
%ADD11C,0.300000*%
%ADD12C,0.002540*%
G04 APERTURE END LIST*
D10*
D11*
X158273428Y-102699429D02*
X158201999Y-102628000D01*
X158059142Y-102556571D01*
X157701999Y-102556571D01*
X157559142Y-102628000D01*
X157487713Y-102699429D01*
X157416285Y-102842286D01*
X157416285Y-102985143D01*
X157487713Y-103199429D01*
X158344856Y-104056571D01*
X157416285Y-104056571D01*
X156487714Y-102556571D02*
X156344857Y-102556571D01*
X156202000Y-102628000D01*
X156130571Y-102699429D01*
X156059142Y-102842286D01*
X155987714Y-103128000D01*
X155987714Y-103485143D01*
X156059142Y-103770857D01*
X156130571Y-103913714D01*
X156202000Y-103985143D01*
X156344857Y-104056571D01*
X156487714Y-104056571D01*
X156630571Y-103985143D01*
X156702000Y-103913714D01*
X156773428Y-103770857D01*
X156844857Y-103485143D01*
X156844857Y-103128000D01*
X156773428Y-102842286D01*
X156702000Y-102699429D01*
X156630571Y-102628000D01*
X156487714Y-102556571D01*
X154559143Y-104056571D02*
X155416286Y-104056571D01*
X154987714Y-104056571D02*
X154987714Y-102556571D01*
X155130571Y-102770857D01*
X155273429Y-102913714D01*
X155416286Y-102985143D01*
X153202000Y-102556571D02*
X153916286Y-102556571D01*
X153987715Y-103270857D01*
X153916286Y-103199429D01*
X153773429Y-103128000D01*
X153416286Y-103128000D01*
X153273429Y-103199429D01*
X153202000Y-103270857D01*
X153130572Y-103413714D01*
X153130572Y-103770857D01*
X153202000Y-103913714D01*
X153273429Y-103985143D01*
X153416286Y-104056571D01*
X153773429Y-104056571D01*
X153916286Y-103985143D01*
X153987715Y-103913714D01*
X162094856Y-100984857D02*
X162594856Y-100984857D01*
X162594856Y-101770571D02*
X162594856Y-100270571D01*
X161880570Y-100270571D01*
X160666285Y-101770571D02*
X160666285Y-100984857D01*
X160737714Y-100842000D01*
X160880571Y-100770571D01*
X161166285Y-100770571D01*
X161309142Y-100842000D01*
X160666285Y-101699143D02*
X160809142Y-101770571D01*
X161166285Y-101770571D01*
X161309142Y-101699143D01*
X161380571Y-101556286D01*
X161380571Y-101413429D01*
X161309142Y-101270571D01*
X161166285Y-101199143D01*
X160809142Y-101199143D01*
X160666285Y-101127714D01*
X159309142Y-101699143D02*
X159451999Y-101770571D01*
X159737713Y-101770571D01*
X159880571Y-101699143D01*
X159951999Y-101627714D01*
X160023428Y-101484857D01*
X160023428Y-101056286D01*
X159951999Y-100913429D01*
X159880571Y-100842000D01*
X159737713Y-100770571D01*
X159451999Y-100770571D01*
X159309142Y-100842000D01*
X158094857Y-101699143D02*
X158237714Y-101770571D01*
X158523428Y-101770571D01*
X158666285Y-101699143D01*
X158737714Y-101556286D01*
X158737714Y-100984857D01*
X158666285Y-100842000D01*
X158523428Y-100770571D01*
X158237714Y-100770571D01*
X158094857Y-100842000D01*
X158023428Y-100984857D01*
X158023428Y-101127714D01*
X158737714Y-101270571D01*
X157166285Y-101770571D02*
X157309143Y-101699143D01*
X157380571Y-101556286D01*
X157380571Y-100270571D01*
X156023429Y-101699143D02*
X156166286Y-101770571D01*
X156452000Y-101770571D01*
X156594857Y-101699143D01*
X156666286Y-101556286D01*
X156666286Y-100984857D01*
X156594857Y-100842000D01*
X156452000Y-100770571D01*
X156166286Y-100770571D01*
X156023429Y-100842000D01*
X155952000Y-100984857D01*
X155952000Y-101127714D01*
X156666286Y-101270571D01*
X155380572Y-101699143D02*
X155237715Y-101770571D01*
X154952000Y-101770571D01*
X154809143Y-101699143D01*
X154737715Y-101556286D01*
X154737715Y-101484857D01*
X154809143Y-101342000D01*
X154952000Y-101270571D01*
X155166286Y-101270571D01*
X155309143Y-101199143D01*
X155380572Y-101056286D01*
X155380572Y-100984857D01*
X155309143Y-100842000D01*
X155166286Y-100770571D01*
X154952000Y-100770571D01*
X154809143Y-100842000D01*
X154166286Y-101699143D02*
X154023429Y-101770571D01*
X153737714Y-101770571D01*
X153594857Y-101699143D01*
X153523429Y-101556286D01*
X153523429Y-101484857D01*
X153594857Y-101342000D01*
X153737714Y-101270571D01*
X153952000Y-101270571D01*
X154094857Y-101199143D01*
X154166286Y-101056286D01*
X154166286Y-100984857D01*
X154094857Y-100842000D01*
X153952000Y-100770571D01*
X153737714Y-100770571D01*
X153594857Y-100842000D01*
X153094857Y-100770571D02*
X152523428Y-100770571D01*
X152880571Y-100270571D02*
X152880571Y-101556286D01*
X152809143Y-101699143D01*
X152666285Y-101770571D01*
X152523428Y-101770571D01*
X151452000Y-101699143D02*
X151594857Y-101770571D01*
X151880571Y-101770571D01*
X152023428Y-101699143D01*
X152094857Y-101556286D01*
X152094857Y-100984857D01*
X152023428Y-100842000D01*
X151880571Y-100770571D01*
X151594857Y-100770571D01*
X151452000Y-100842000D01*
X151380571Y-100984857D01*
X151380571Y-101127714D01*
X152094857Y-101270571D01*
X150094857Y-101699143D02*
X150237714Y-101770571D01*
X150523428Y-101770571D01*
X150666286Y-101699143D01*
X150737714Y-101627714D01*
X150809143Y-101484857D01*
X150809143Y-101056286D01*
X150737714Y-100913429D01*
X150666286Y-100842000D01*
X150523428Y-100770571D01*
X150237714Y-100770571D01*
X150094857Y-100842000D01*
X149452000Y-101770571D02*
X149452000Y-100270571D01*
X148809143Y-101770571D02*
X148809143Y-100984857D01*
X148880572Y-100842000D01*
X149023429Y-100770571D01*
X149237714Y-100770571D01*
X149380572Y-100842000D01*
X149452000Y-100913429D01*
D12*
G36*
X132643880Y-104973120D02*
X132753100Y-104973120D01*
X132753100Y-101904800D01*
X132753100Y-101767640D01*
X132753100Y-101622860D01*
X132753100Y-101511100D01*
X132755640Y-101427280D01*
X132758180Y-101368860D01*
X132763260Y-101330760D01*
X132768340Y-101307900D01*
X132775960Y-101300280D01*
X132801360Y-101295200D01*
X132854700Y-101282500D01*
X132933440Y-101267260D01*
X133032500Y-101246940D01*
X133144260Y-101226620D01*
X133217920Y-101213920D01*
X133334760Y-101191060D01*
X133441440Y-101170740D01*
X133530340Y-101152960D01*
X133596380Y-101137720D01*
X133634480Y-101130100D01*
X133644640Y-101125020D01*
X133654800Y-101104700D01*
X133677660Y-101056440D01*
X133708140Y-100987860D01*
X133743700Y-100906580D01*
X133781800Y-100817680D01*
X133819900Y-100726240D01*
X133855460Y-100639880D01*
X133885940Y-100566220D01*
X133906260Y-100510340D01*
X133918960Y-100477320D01*
X133918960Y-100474780D01*
X133908800Y-100449380D01*
X133883400Y-100401120D01*
X133842760Y-100340160D01*
X133804660Y-100281740D01*
X133692900Y-100124260D01*
X133604000Y-99992180D01*
X133535420Y-99888040D01*
X133484620Y-99809300D01*
X133451600Y-99753420D01*
X133436360Y-99720400D01*
X133433820Y-99715320D01*
X133446520Y-99695000D01*
X133479540Y-99654360D01*
X133530340Y-99598480D01*
X133596380Y-99529900D01*
X133667500Y-99453700D01*
X133746240Y-99374960D01*
X133824980Y-99296220D01*
X133898640Y-99222560D01*
X133964680Y-99159060D01*
X134018020Y-99108260D01*
X134056120Y-99077780D01*
X134071360Y-99067620D01*
X134091680Y-99077780D01*
X134137400Y-99105720D01*
X134203440Y-99146360D01*
X134284720Y-99202240D01*
X134381240Y-99265740D01*
X134457440Y-99319080D01*
X134561580Y-99387660D01*
X134653020Y-99451160D01*
X134731760Y-99501960D01*
X134792720Y-99540060D01*
X134833360Y-99562920D01*
X134846060Y-99570540D01*
X134871460Y-99562920D01*
X134924800Y-99545140D01*
X134995920Y-99517200D01*
X135079740Y-99481640D01*
X135171180Y-99446080D01*
X135260080Y-99405440D01*
X135341360Y-99369880D01*
X135409940Y-99336860D01*
X135458200Y-99314000D01*
X135481060Y-99298760D01*
X135481060Y-99298760D01*
X135488680Y-99273360D01*
X135501380Y-99220020D01*
X135516620Y-99141280D01*
X135536940Y-99042220D01*
X135557260Y-98930460D01*
X135569960Y-98869500D01*
X135590280Y-98752660D01*
X135613140Y-98643440D01*
X135630920Y-98552000D01*
X135646160Y-98480880D01*
X135656320Y-98435160D01*
X135658860Y-98425000D01*
X135666480Y-98412300D01*
X135674100Y-98404680D01*
X135691880Y-98397060D01*
X135719820Y-98391980D01*
X135763000Y-98389440D01*
X135826500Y-98386900D01*
X135915400Y-98386900D01*
X136032240Y-98384360D01*
X136123680Y-98384360D01*
X136253220Y-98386900D01*
X136367520Y-98386900D01*
X136461500Y-98391980D01*
X136532620Y-98394520D01*
X136573260Y-98399600D01*
X136583420Y-98402140D01*
X136588500Y-98422460D01*
X136601200Y-98475800D01*
X136616440Y-98552000D01*
X136636760Y-98651060D01*
X136657080Y-98762820D01*
X136674860Y-98856800D01*
X136697720Y-98976180D01*
X136720580Y-99087940D01*
X136740900Y-99181920D01*
X136758680Y-99253040D01*
X136771380Y-99298760D01*
X136779000Y-99311460D01*
X136804400Y-99329240D01*
X136855200Y-99352100D01*
X136926320Y-99382580D01*
X137010140Y-99418140D01*
X137101580Y-99453700D01*
X137190480Y-99489260D01*
X137274300Y-99522280D01*
X137345420Y-99545140D01*
X137396220Y-99560380D01*
X137419080Y-99565460D01*
X137439400Y-99552760D01*
X137487660Y-99522280D01*
X137553700Y-99479100D01*
X137637520Y-99423220D01*
X137734040Y-99359720D01*
X137800080Y-99311460D01*
X137901680Y-99242880D01*
X137990580Y-99181920D01*
X138069320Y-99131120D01*
X138130280Y-99093020D01*
X138165840Y-99072700D01*
X138176000Y-99067620D01*
X138196320Y-99080320D01*
X138236960Y-99113340D01*
X138292840Y-99166680D01*
X138363960Y-99235260D01*
X138447780Y-99316540D01*
X138511280Y-99380040D01*
X138615420Y-99484180D01*
X138696700Y-99568000D01*
X138755120Y-99631500D01*
X138790680Y-99677220D01*
X138811000Y-99707700D01*
X138813540Y-99725480D01*
X138800840Y-99748340D01*
X138772900Y-99796600D01*
X138727180Y-99867720D01*
X138671300Y-99951540D01*
X138607800Y-100045520D01*
X138569700Y-100101400D01*
X138503660Y-100200460D01*
X138442700Y-100291900D01*
X138391900Y-100370640D01*
X138356340Y-100429060D01*
X138336020Y-100467160D01*
X138333480Y-100477320D01*
X138341100Y-100502720D01*
X138358880Y-100553520D01*
X138386820Y-100624640D01*
X138422380Y-100708460D01*
X138457940Y-100799900D01*
X138496040Y-100891340D01*
X138534140Y-100972620D01*
X138564620Y-101043740D01*
X138590020Y-101094540D01*
X138602720Y-101119940D01*
X138602720Y-101119940D01*
X138625580Y-101127560D01*
X138676380Y-101140260D01*
X138752580Y-101158040D01*
X138849100Y-101178360D01*
X138960860Y-101198680D01*
X139034520Y-101213920D01*
X139153900Y-101236780D01*
X139260580Y-101257100D01*
X139352020Y-101274880D01*
X139423140Y-101287580D01*
X139466320Y-101297740D01*
X139476480Y-101300280D01*
X139484100Y-101320600D01*
X139491720Y-101371400D01*
X139494260Y-101445060D01*
X139499340Y-101536500D01*
X139501880Y-101643180D01*
X139501880Y-101752400D01*
X139501880Y-101864160D01*
X139501880Y-101970840D01*
X139496800Y-102064820D01*
X139491720Y-102143560D01*
X139486640Y-102196900D01*
X139479020Y-102222300D01*
X139479020Y-102222300D01*
X139453620Y-102229920D01*
X139400280Y-102242620D01*
X139324080Y-102260400D01*
X139225020Y-102280720D01*
X139113260Y-102301040D01*
X139052300Y-102313740D01*
X138938000Y-102334060D01*
X138831320Y-102356920D01*
X138742420Y-102377240D01*
X138676380Y-102392480D01*
X138635740Y-102405180D01*
X138628120Y-102410260D01*
X138615420Y-102433120D01*
X138592560Y-102483920D01*
X138562080Y-102555040D01*
X138523980Y-102638860D01*
X138488420Y-102732840D01*
X138450320Y-102826820D01*
X138414760Y-102915720D01*
X138384280Y-102991920D01*
X138363960Y-103052880D01*
X138353800Y-103088440D01*
X138351260Y-103093520D01*
X138361420Y-103113840D01*
X138389360Y-103159560D01*
X138432540Y-103225600D01*
X138485880Y-103306880D01*
X138549380Y-103400860D01*
X138584940Y-103451660D01*
X138653520Y-103550720D01*
X138711940Y-103639620D01*
X138760200Y-103718360D01*
X138795760Y-103776780D01*
X138816080Y-103812340D01*
X138818620Y-103822500D01*
X138805920Y-103840280D01*
X138772900Y-103880920D01*
X138722100Y-103936800D01*
X138658600Y-104005380D01*
X138584940Y-104081580D01*
X138508740Y-104160320D01*
X138430000Y-104239060D01*
X138356340Y-104312720D01*
X138290300Y-104376220D01*
X138236960Y-104427020D01*
X138201400Y-104460040D01*
X138183620Y-104470200D01*
X138165840Y-104460040D01*
X138122660Y-104434640D01*
X138059160Y-104391460D01*
X137977880Y-104338120D01*
X137886440Y-104274620D01*
X137830560Y-104236520D01*
X137731500Y-104170480D01*
X137642600Y-104112060D01*
X137566400Y-104061260D01*
X137507980Y-104025700D01*
X137472420Y-104005380D01*
X137464800Y-104002840D01*
X137439400Y-104010460D01*
X137391140Y-104033320D01*
X137327640Y-104063800D01*
X137284460Y-104086660D01*
X137208260Y-104124760D01*
X137157460Y-104147620D01*
X137119360Y-104147620D01*
X137091420Y-104124760D01*
X137066020Y-104076500D01*
X137033000Y-103995220D01*
X137027920Y-103985060D01*
X137007600Y-103936800D01*
X136977120Y-103858060D01*
X136936480Y-103759000D01*
X136888220Y-103639620D01*
X136832340Y-103510080D01*
X136776460Y-103370380D01*
X136738360Y-103281480D01*
X136682480Y-103146860D01*
X136631680Y-103019860D01*
X136588500Y-102910640D01*
X136550400Y-102816660D01*
X136522460Y-102745540D01*
X136507220Y-102699820D01*
X136502140Y-102687120D01*
X136517380Y-102664260D01*
X136552940Y-102628700D01*
X136606280Y-102585520D01*
X136629140Y-102567740D01*
X136779000Y-102443280D01*
X136893300Y-102311200D01*
X136977120Y-102171500D01*
X137030460Y-102019100D01*
X137055860Y-101848920D01*
X137058400Y-101757480D01*
X137043160Y-101574600D01*
X136994900Y-101406960D01*
X136911080Y-101252020D01*
X136796780Y-101112320D01*
X136753600Y-101071680D01*
X136608820Y-100965000D01*
X136451340Y-100888800D01*
X136286240Y-100843080D01*
X136118600Y-100830380D01*
X135948420Y-100845620D01*
X135785860Y-100893880D01*
X135630920Y-100970080D01*
X135491220Y-101079300D01*
X135442960Y-101125020D01*
X135328660Y-101269800D01*
X135249920Y-101422200D01*
X135201660Y-101587300D01*
X135186420Y-101767640D01*
X135186420Y-101770180D01*
X135204200Y-101950520D01*
X135252460Y-102120700D01*
X135333740Y-102275640D01*
X135450580Y-102417880D01*
X135597900Y-102549960D01*
X135638540Y-102580440D01*
X135691880Y-102621080D01*
X135729980Y-102656640D01*
X135747760Y-102682040D01*
X135750300Y-102684580D01*
X135742680Y-102709980D01*
X135724900Y-102760780D01*
X135696960Y-102829360D01*
X135663940Y-102910640D01*
X135661400Y-102920800D01*
X135630920Y-102994460D01*
X135587740Y-103093520D01*
X135539480Y-103212900D01*
X135483600Y-103344980D01*
X135425180Y-103484680D01*
X135369300Y-103624380D01*
X135364220Y-103634540D01*
X135310880Y-103761540D01*
X135262620Y-103875840D01*
X135219440Y-103977440D01*
X135183880Y-104058720D01*
X135158480Y-104117140D01*
X135143240Y-104150160D01*
X135140700Y-104152700D01*
X135117840Y-104152700D01*
X135072120Y-104134920D01*
X135006080Y-104106980D01*
X134965440Y-104086660D01*
X134894320Y-104051100D01*
X134835900Y-104023160D01*
X134795260Y-104005380D01*
X134782560Y-104002840D01*
X134762240Y-104013000D01*
X134716520Y-104040940D01*
X134650480Y-104081580D01*
X134569200Y-104134920D01*
X134477760Y-104198420D01*
X134449820Y-104216200D01*
X134355840Y-104282240D01*
X134266940Y-104340660D01*
X134193280Y-104391460D01*
X134137400Y-104427020D01*
X134104380Y-104449880D01*
X134099300Y-104452420D01*
X134084060Y-104457500D01*
X134068820Y-104454960D01*
X134048500Y-104444800D01*
X134018020Y-104424480D01*
X133977380Y-104386380D01*
X133918960Y-104333040D01*
X133845300Y-104259380D01*
X133746240Y-104162860D01*
X133746240Y-104162860D01*
X133654800Y-104068880D01*
X133573520Y-103985060D01*
X133510020Y-103916480D01*
X133461760Y-103860600D01*
X133438900Y-103827580D01*
X133433820Y-103819960D01*
X133443980Y-103794560D01*
X133471920Y-103746300D01*
X133512560Y-103677720D01*
X133568440Y-103593900D01*
X133631940Y-103499920D01*
X133667500Y-103446580D01*
X133733540Y-103350060D01*
X133791960Y-103261160D01*
X133842760Y-103187500D01*
X133878320Y-103131620D01*
X133898640Y-103098600D01*
X133901180Y-103093520D01*
X133893560Y-103070660D01*
X133875780Y-103019860D01*
X133847840Y-102951280D01*
X133817360Y-102867460D01*
X133779260Y-102776020D01*
X133741160Y-102684580D01*
X133705600Y-102595680D01*
X133672580Y-102516940D01*
X133647180Y-102458520D01*
X133629400Y-102422960D01*
X133626860Y-102417880D01*
X133611620Y-102405180D01*
X133578600Y-102395020D01*
X133527800Y-102379780D01*
X133454140Y-102362000D01*
X133357620Y-102341680D01*
X133230620Y-102318820D01*
X133073140Y-102288340D01*
X132976620Y-102270560D01*
X132900420Y-102257860D01*
X132836920Y-102245160D01*
X132793740Y-102235000D01*
X132783580Y-102232460D01*
X132773420Y-102227380D01*
X132765800Y-102217220D01*
X132760720Y-102191820D01*
X132758180Y-102153720D01*
X132755640Y-102095300D01*
X132753100Y-102014020D01*
X132753100Y-101904800D01*
X132753100Y-104973120D01*
X136144000Y-104973120D01*
X139644120Y-104973120D01*
X139644120Y-101473000D01*
X139644120Y-97972880D01*
X136144000Y-97972880D01*
X132643880Y-97972880D01*
X132643880Y-101473000D01*
X132643880Y-104973120D01*
X132643880Y-104973120D01*
X132643880Y-104973120D01*
G37*
X132643880Y-104973120D02*
X132753100Y-104973120D01*
X132753100Y-101904800D01*
X132753100Y-101767640D01*
X132753100Y-101622860D01*
X132753100Y-101511100D01*
X132755640Y-101427280D01*
X132758180Y-101368860D01*
X132763260Y-101330760D01*
X132768340Y-101307900D01*
X132775960Y-101300280D01*
X132801360Y-101295200D01*
X132854700Y-101282500D01*
X132933440Y-101267260D01*
X133032500Y-101246940D01*
X133144260Y-101226620D01*
X133217920Y-101213920D01*
X133334760Y-101191060D01*
X133441440Y-101170740D01*
X133530340Y-101152960D01*
X133596380Y-101137720D01*
X133634480Y-101130100D01*
X133644640Y-101125020D01*
X133654800Y-101104700D01*
X133677660Y-101056440D01*
X133708140Y-100987860D01*
X133743700Y-100906580D01*
X133781800Y-100817680D01*
X133819900Y-100726240D01*
X133855460Y-100639880D01*
X133885940Y-100566220D01*
X133906260Y-100510340D01*
X133918960Y-100477320D01*
X133918960Y-100474780D01*
X133908800Y-100449380D01*
X133883400Y-100401120D01*
X133842760Y-100340160D01*
X133804660Y-100281740D01*
X133692900Y-100124260D01*
X133604000Y-99992180D01*
X133535420Y-99888040D01*
X133484620Y-99809300D01*
X133451600Y-99753420D01*
X133436360Y-99720400D01*
X133433820Y-99715320D01*
X133446520Y-99695000D01*
X133479540Y-99654360D01*
X133530340Y-99598480D01*
X133596380Y-99529900D01*
X133667500Y-99453700D01*
X133746240Y-99374960D01*
X133824980Y-99296220D01*
X133898640Y-99222560D01*
X133964680Y-99159060D01*
X134018020Y-99108260D01*
X134056120Y-99077780D01*
X134071360Y-99067620D01*
X134091680Y-99077780D01*
X134137400Y-99105720D01*
X134203440Y-99146360D01*
X134284720Y-99202240D01*
X134381240Y-99265740D01*
X134457440Y-99319080D01*
X134561580Y-99387660D01*
X134653020Y-99451160D01*
X134731760Y-99501960D01*
X134792720Y-99540060D01*
X134833360Y-99562920D01*
X134846060Y-99570540D01*
X134871460Y-99562920D01*
X134924800Y-99545140D01*
X134995920Y-99517200D01*
X135079740Y-99481640D01*
X135171180Y-99446080D01*
X135260080Y-99405440D01*
X135341360Y-99369880D01*
X135409940Y-99336860D01*
X135458200Y-99314000D01*
X135481060Y-99298760D01*
X135481060Y-99298760D01*
X135488680Y-99273360D01*
X135501380Y-99220020D01*
X135516620Y-99141280D01*
X135536940Y-99042220D01*
X135557260Y-98930460D01*
X135569960Y-98869500D01*
X135590280Y-98752660D01*
X135613140Y-98643440D01*
X135630920Y-98552000D01*
X135646160Y-98480880D01*
X135656320Y-98435160D01*
X135658860Y-98425000D01*
X135666480Y-98412300D01*
X135674100Y-98404680D01*
X135691880Y-98397060D01*
X135719820Y-98391980D01*
X135763000Y-98389440D01*
X135826500Y-98386900D01*
X135915400Y-98386900D01*
X136032240Y-98384360D01*
X136123680Y-98384360D01*
X136253220Y-98386900D01*
X136367520Y-98386900D01*
X136461500Y-98391980D01*
X136532620Y-98394520D01*
X136573260Y-98399600D01*
X136583420Y-98402140D01*
X136588500Y-98422460D01*
X136601200Y-98475800D01*
X136616440Y-98552000D01*
X136636760Y-98651060D01*
X136657080Y-98762820D01*
X136674860Y-98856800D01*
X136697720Y-98976180D01*
X136720580Y-99087940D01*
X136740900Y-99181920D01*
X136758680Y-99253040D01*
X136771380Y-99298760D01*
X136779000Y-99311460D01*
X136804400Y-99329240D01*
X136855200Y-99352100D01*
X136926320Y-99382580D01*
X137010140Y-99418140D01*
X137101580Y-99453700D01*
X137190480Y-99489260D01*
X137274300Y-99522280D01*
X137345420Y-99545140D01*
X137396220Y-99560380D01*
X137419080Y-99565460D01*
X137439400Y-99552760D01*
X137487660Y-99522280D01*
X137553700Y-99479100D01*
X137637520Y-99423220D01*
X137734040Y-99359720D01*
X137800080Y-99311460D01*
X137901680Y-99242880D01*
X137990580Y-99181920D01*
X138069320Y-99131120D01*
X138130280Y-99093020D01*
X138165840Y-99072700D01*
X138176000Y-99067620D01*
X138196320Y-99080320D01*
X138236960Y-99113340D01*
X138292840Y-99166680D01*
X138363960Y-99235260D01*
X138447780Y-99316540D01*
X138511280Y-99380040D01*
X138615420Y-99484180D01*
X138696700Y-99568000D01*
X138755120Y-99631500D01*
X138790680Y-99677220D01*
X138811000Y-99707700D01*
X138813540Y-99725480D01*
X138800840Y-99748340D01*
X138772900Y-99796600D01*
X138727180Y-99867720D01*
X138671300Y-99951540D01*
X138607800Y-100045520D01*
X138569700Y-100101400D01*
X138503660Y-100200460D01*
X138442700Y-100291900D01*
X138391900Y-100370640D01*
X138356340Y-100429060D01*
X138336020Y-100467160D01*
X138333480Y-100477320D01*
X138341100Y-100502720D01*
X138358880Y-100553520D01*
X138386820Y-100624640D01*
X138422380Y-100708460D01*
X138457940Y-100799900D01*
X138496040Y-100891340D01*
X138534140Y-100972620D01*
X138564620Y-101043740D01*
X138590020Y-101094540D01*
X138602720Y-101119940D01*
X138602720Y-101119940D01*
X138625580Y-101127560D01*
X138676380Y-101140260D01*
X138752580Y-101158040D01*
X138849100Y-101178360D01*
X138960860Y-101198680D01*
X139034520Y-101213920D01*
X139153900Y-101236780D01*
X139260580Y-101257100D01*
X139352020Y-101274880D01*
X139423140Y-101287580D01*
X139466320Y-101297740D01*
X139476480Y-101300280D01*
X139484100Y-101320600D01*
X139491720Y-101371400D01*
X139494260Y-101445060D01*
X139499340Y-101536500D01*
X139501880Y-101643180D01*
X139501880Y-101752400D01*
X139501880Y-101864160D01*
X139501880Y-101970840D01*
X139496800Y-102064820D01*
X139491720Y-102143560D01*
X139486640Y-102196900D01*
X139479020Y-102222300D01*
X139479020Y-102222300D01*
X139453620Y-102229920D01*
X139400280Y-102242620D01*
X139324080Y-102260400D01*
X139225020Y-102280720D01*
X139113260Y-102301040D01*
X139052300Y-102313740D01*
X138938000Y-102334060D01*
X138831320Y-102356920D01*
X138742420Y-102377240D01*
X138676380Y-102392480D01*
X138635740Y-102405180D01*
X138628120Y-102410260D01*
X138615420Y-102433120D01*
X138592560Y-102483920D01*
X138562080Y-102555040D01*
X138523980Y-102638860D01*
X138488420Y-102732840D01*
X138450320Y-102826820D01*
X138414760Y-102915720D01*
X138384280Y-102991920D01*
X138363960Y-103052880D01*
X138353800Y-103088440D01*
X138351260Y-103093520D01*
X138361420Y-103113840D01*
X138389360Y-103159560D01*
X138432540Y-103225600D01*
X138485880Y-103306880D01*
X138549380Y-103400860D01*
X138584940Y-103451660D01*
X138653520Y-103550720D01*
X138711940Y-103639620D01*
X138760200Y-103718360D01*
X138795760Y-103776780D01*
X138816080Y-103812340D01*
X138818620Y-103822500D01*
X138805920Y-103840280D01*
X138772900Y-103880920D01*
X138722100Y-103936800D01*
X138658600Y-104005380D01*
X138584940Y-104081580D01*
X138508740Y-104160320D01*
X138430000Y-104239060D01*
X138356340Y-104312720D01*
X138290300Y-104376220D01*
X138236960Y-104427020D01*
X138201400Y-104460040D01*
X138183620Y-104470200D01*
X138165840Y-104460040D01*
X138122660Y-104434640D01*
X138059160Y-104391460D01*
X137977880Y-104338120D01*
X137886440Y-104274620D01*
X137830560Y-104236520D01*
X137731500Y-104170480D01*
X137642600Y-104112060D01*
X137566400Y-104061260D01*
X137507980Y-104025700D01*
X137472420Y-104005380D01*
X137464800Y-104002840D01*
X137439400Y-104010460D01*
X137391140Y-104033320D01*
X137327640Y-104063800D01*
X137284460Y-104086660D01*
X137208260Y-104124760D01*
X137157460Y-104147620D01*
X137119360Y-104147620D01*
X137091420Y-104124760D01*
X137066020Y-104076500D01*
X137033000Y-103995220D01*
X137027920Y-103985060D01*
X137007600Y-103936800D01*
X136977120Y-103858060D01*
X136936480Y-103759000D01*
X136888220Y-103639620D01*
X136832340Y-103510080D01*
X136776460Y-103370380D01*
X136738360Y-103281480D01*
X136682480Y-103146860D01*
X136631680Y-103019860D01*
X136588500Y-102910640D01*
X136550400Y-102816660D01*
X136522460Y-102745540D01*
X136507220Y-102699820D01*
X136502140Y-102687120D01*
X136517380Y-102664260D01*
X136552940Y-102628700D01*
X136606280Y-102585520D01*
X136629140Y-102567740D01*
X136779000Y-102443280D01*
X136893300Y-102311200D01*
X136977120Y-102171500D01*
X137030460Y-102019100D01*
X137055860Y-101848920D01*
X137058400Y-101757480D01*
X137043160Y-101574600D01*
X136994900Y-101406960D01*
X136911080Y-101252020D01*
X136796780Y-101112320D01*
X136753600Y-101071680D01*
X136608820Y-100965000D01*
X136451340Y-100888800D01*
X136286240Y-100843080D01*
X136118600Y-100830380D01*
X135948420Y-100845620D01*
X135785860Y-100893880D01*
X135630920Y-100970080D01*
X135491220Y-101079300D01*
X135442960Y-101125020D01*
X135328660Y-101269800D01*
X135249920Y-101422200D01*
X135201660Y-101587300D01*
X135186420Y-101767640D01*
X135186420Y-101770180D01*
X135204200Y-101950520D01*
X135252460Y-102120700D01*
X135333740Y-102275640D01*
X135450580Y-102417880D01*
X135597900Y-102549960D01*
X135638540Y-102580440D01*
X135691880Y-102621080D01*
X135729980Y-102656640D01*
X135747760Y-102682040D01*
X135750300Y-102684580D01*
X135742680Y-102709980D01*
X135724900Y-102760780D01*
X135696960Y-102829360D01*
X135663940Y-102910640D01*
X135661400Y-102920800D01*
X135630920Y-102994460D01*
X135587740Y-103093520D01*
X135539480Y-103212900D01*
X135483600Y-103344980D01*
X135425180Y-103484680D01*
X135369300Y-103624380D01*
X135364220Y-103634540D01*
X135310880Y-103761540D01*
X135262620Y-103875840D01*
X135219440Y-103977440D01*
X135183880Y-104058720D01*
X135158480Y-104117140D01*
X135143240Y-104150160D01*
X135140700Y-104152700D01*
X135117840Y-104152700D01*
X135072120Y-104134920D01*
X135006080Y-104106980D01*
X134965440Y-104086660D01*
X134894320Y-104051100D01*
X134835900Y-104023160D01*
X134795260Y-104005380D01*
X134782560Y-104002840D01*
X134762240Y-104013000D01*
X134716520Y-104040940D01*
X134650480Y-104081580D01*
X134569200Y-104134920D01*
X134477760Y-104198420D01*
X134449820Y-104216200D01*
X134355840Y-104282240D01*
X134266940Y-104340660D01*
X134193280Y-104391460D01*
X134137400Y-104427020D01*
X134104380Y-104449880D01*
X134099300Y-104452420D01*
X134084060Y-104457500D01*
X134068820Y-104454960D01*
X134048500Y-104444800D01*
X134018020Y-104424480D01*
X133977380Y-104386380D01*
X133918960Y-104333040D01*
X133845300Y-104259380D01*
X133746240Y-104162860D01*
X133746240Y-104162860D01*
X133654800Y-104068880D01*
X133573520Y-103985060D01*
X133510020Y-103916480D01*
X133461760Y-103860600D01*
X133438900Y-103827580D01*
X133433820Y-103819960D01*
X133443980Y-103794560D01*
X133471920Y-103746300D01*
X133512560Y-103677720D01*
X133568440Y-103593900D01*
X133631940Y-103499920D01*
X133667500Y-103446580D01*
X133733540Y-103350060D01*
X133791960Y-103261160D01*
X133842760Y-103187500D01*
X133878320Y-103131620D01*
X133898640Y-103098600D01*
X133901180Y-103093520D01*
X133893560Y-103070660D01*
X133875780Y-103019860D01*
X133847840Y-102951280D01*
X133817360Y-102867460D01*
X133779260Y-102776020D01*
X133741160Y-102684580D01*
X133705600Y-102595680D01*
X133672580Y-102516940D01*
X133647180Y-102458520D01*
X133629400Y-102422960D01*
X133626860Y-102417880D01*
X133611620Y-102405180D01*
X133578600Y-102395020D01*
X133527800Y-102379780D01*
X133454140Y-102362000D01*
X133357620Y-102341680D01*
X133230620Y-102318820D01*
X133073140Y-102288340D01*
X132976620Y-102270560D01*
X132900420Y-102257860D01*
X132836920Y-102245160D01*
X132793740Y-102235000D01*
X132783580Y-102232460D01*
X132773420Y-102227380D01*
X132765800Y-102217220D01*
X132760720Y-102191820D01*
X132758180Y-102153720D01*
X132755640Y-102095300D01*
X132753100Y-102014020D01*
X132753100Y-101904800D01*
X132753100Y-104973120D01*
X136144000Y-104973120D01*
X139644120Y-104973120D01*
X139644120Y-101473000D01*
X139644120Y-97972880D01*
X136144000Y-97972880D01*
X132643880Y-97972880D01*
X132643880Y-101473000D01*
X132643880Y-104973120D01*
X132643880Y-104973120D01*
M02*
