G04 #@! TF.FileFunction,Copper,L2,Bot,Signal*
%FSLAX46Y46*%
G04 Gerber Fmt 4.6, Leading zero omitted, Abs format (unit mm)*
G04 Created by KiCad (PCBNEW 4.0.0-rc2-stable) date Tue 17 Nov 2015 14:10:44 GMT*
%MOMM*%
G01*
G04 APERTURE LIST*
%ADD10C,0.100000*%
%ADD11C,1.400000*%
%ADD12C,1.501140*%
%ADD13C,1.524000*%
%ADD14C,1.600000*%
%ADD15C,1.700000*%
%ADD16R,1.300000X1.300000*%
%ADD17C,1.300000*%
%ADD18C,0.254000*%
G04 APERTURE END LIST*
D10*
D11*
X130810000Y-103632000D03*
X130810000Y-106172000D03*
X130810000Y-101092000D03*
X130810000Y-98552000D03*
X130810000Y-108712000D03*
X130810000Y-111252000D03*
D12*
X157380940Y-107442000D03*
X152499060Y-107442000D03*
D11*
X148590000Y-111252000D03*
X151130000Y-111252000D03*
X148590000Y-98552000D03*
X153670000Y-98552000D03*
X133350000Y-111252000D03*
X156210000Y-98552000D03*
X158750000Y-98552000D03*
X161290000Y-98552000D03*
X135890000Y-111252000D03*
X138430000Y-111252000D03*
D13*
X153670000Y-111252000D03*
X156210000Y-111252000D03*
D14*
X167640000Y-102362000D03*
X167640000Y-104902000D03*
X165100000Y-104902000D03*
X165100000Y-102362000D03*
X167640000Y-107442000D03*
X165100000Y-107442000D03*
D15*
X137668000Y-107188000D03*
X144272000Y-107188000D03*
D16*
X146812000Y-103378000D03*
D17*
X149312000Y-103378000D03*
D16*
X147574000Y-106426000D03*
D17*
X147574000Y-108926000D03*
D16*
X134620000Y-106426000D03*
D17*
X134620000Y-108926000D03*
D18*
G36*
X129462581Y-98359122D02*
X129491336Y-98889440D01*
X129638958Y-99245831D01*
X129874725Y-99307669D01*
X130630395Y-98552000D01*
X130616252Y-98537858D01*
X130795858Y-98358252D01*
X130810000Y-98372395D01*
X130824142Y-98358252D01*
X131003748Y-98537858D01*
X130989605Y-98552000D01*
X131745275Y-99307669D01*
X131981042Y-99245831D01*
X132157419Y-98744878D01*
X132128664Y-98214560D01*
X132036477Y-97992000D01*
X147371838Y-97992000D01*
X147242581Y-98359122D01*
X147271336Y-98889440D01*
X147418958Y-99245831D01*
X147654725Y-99307669D01*
X148410395Y-98552000D01*
X148396252Y-98537858D01*
X148575858Y-98358252D01*
X148590000Y-98372395D01*
X148604142Y-98358252D01*
X148783748Y-98537858D01*
X148769605Y-98552000D01*
X149525275Y-99307669D01*
X149761042Y-99245831D01*
X149937419Y-98744878D01*
X149908664Y-98214560D01*
X149816477Y-97992000D01*
X152457016Y-97992000D01*
X152335232Y-98285287D01*
X152334769Y-98816383D01*
X152537582Y-99307229D01*
X152912796Y-99683098D01*
X153403287Y-99886768D01*
X153934383Y-99887231D01*
X154425229Y-99684418D01*
X154801098Y-99309204D01*
X154940091Y-98974473D01*
X155077582Y-99307229D01*
X155452796Y-99683098D01*
X155943287Y-99886768D01*
X156474383Y-99887231D01*
X156965229Y-99684418D01*
X157341098Y-99309204D01*
X157480091Y-98974473D01*
X157617582Y-99307229D01*
X157992796Y-99683098D01*
X158483287Y-99886768D01*
X159014383Y-99887231D01*
X159505229Y-99684418D01*
X159881098Y-99309204D01*
X160020091Y-98974473D01*
X160157582Y-99307229D01*
X160532796Y-99683098D01*
X161023287Y-99886768D01*
X161554383Y-99887231D01*
X162045229Y-99684418D01*
X162421098Y-99309204D01*
X162624768Y-98818713D01*
X162625231Y-98287617D01*
X162503085Y-97992000D01*
X169089000Y-97992000D01*
X169089000Y-111812000D01*
X157490117Y-111812000D01*
X157606757Y-111531100D01*
X157607242Y-110975339D01*
X157395010Y-110461697D01*
X157002370Y-110068371D01*
X156489100Y-109855243D01*
X155933339Y-109854758D01*
X155419697Y-110066990D01*
X155026371Y-110459630D01*
X154940051Y-110667512D01*
X154855010Y-110461697D01*
X154462370Y-110068371D01*
X153949100Y-109855243D01*
X153393339Y-109854758D01*
X152879697Y-110066990D01*
X152486371Y-110459630D01*
X152373159Y-110732275D01*
X152301042Y-110558169D01*
X152065275Y-110496331D01*
X151309605Y-111252000D01*
X151323748Y-111266142D01*
X151144142Y-111445748D01*
X151130000Y-111431605D01*
X151115858Y-111445748D01*
X150936252Y-111266142D01*
X150950395Y-111252000D01*
X150194725Y-110496331D01*
X149958958Y-110558169D01*
X149861804Y-110834111D01*
X149722418Y-110496771D01*
X149542686Y-110316725D01*
X150374331Y-110316725D01*
X151130000Y-111072395D01*
X151885669Y-110316725D01*
X151823831Y-110080958D01*
X151322878Y-109904581D01*
X150792560Y-109933336D01*
X150436169Y-110080958D01*
X150374331Y-110316725D01*
X149542686Y-110316725D01*
X149347204Y-110120902D01*
X148856713Y-109917232D01*
X148400287Y-109916834D01*
X148662735Y-109654845D01*
X148858777Y-109182724D01*
X148859223Y-108671519D01*
X148664005Y-108199057D01*
X148302845Y-107837265D01*
X148011765Y-107716398D01*
X151113250Y-107716398D01*
X151323746Y-108225837D01*
X151713173Y-108615944D01*
X152222244Y-108827329D01*
X152773458Y-108827810D01*
X153282897Y-108617314D01*
X153673004Y-108227887D01*
X153884389Y-107718816D01*
X153884391Y-107716398D01*
X155995130Y-107716398D01*
X156205626Y-108225837D01*
X156595053Y-108615944D01*
X157104124Y-108827329D01*
X157655338Y-108827810D01*
X158164777Y-108617314D01*
X158554884Y-108227887D01*
X158766269Y-107718816D01*
X158766750Y-107167602D01*
X158556254Y-106658163D01*
X158166827Y-106268056D01*
X157657756Y-106056671D01*
X157106542Y-106056190D01*
X156597103Y-106266686D01*
X156206996Y-106656113D01*
X155995611Y-107165184D01*
X155995130Y-107716398D01*
X153884391Y-107716398D01*
X153884870Y-107167602D01*
X153674374Y-106658163D01*
X153284947Y-106268056D01*
X152775876Y-106056671D01*
X152224662Y-106056190D01*
X151715223Y-106266686D01*
X151325116Y-106656113D01*
X151113731Y-107165184D01*
X151113250Y-107716398D01*
X148011765Y-107716398D01*
X147998765Y-107711000D01*
X148350310Y-107711000D01*
X148583699Y-107614327D01*
X148762327Y-107435698D01*
X148859000Y-107202309D01*
X148859000Y-106711750D01*
X148700250Y-106553000D01*
X147701000Y-106553000D01*
X147701000Y-106573000D01*
X147447000Y-106573000D01*
X147447000Y-106553000D01*
X146447750Y-106553000D01*
X146289000Y-106711750D01*
X146289000Y-107202309D01*
X146385673Y-107435698D01*
X146564301Y-107614327D01*
X146797690Y-107711000D01*
X147149567Y-107711000D01*
X146847057Y-107835995D01*
X146485265Y-108197155D01*
X146289223Y-108669276D01*
X146288777Y-109180481D01*
X146483995Y-109652943D01*
X146845155Y-110014735D01*
X147317276Y-110210777D01*
X147743045Y-110211148D01*
X147458902Y-110494796D01*
X147255232Y-110985287D01*
X147254769Y-111516383D01*
X147376915Y-111812000D01*
X139642984Y-111812000D01*
X139764768Y-111518713D01*
X139765231Y-110987617D01*
X139562418Y-110496771D01*
X139187204Y-110120902D01*
X138696713Y-109917232D01*
X138165617Y-109916769D01*
X137674771Y-110119582D01*
X137298902Y-110494796D01*
X137159909Y-110829527D01*
X137022418Y-110496771D01*
X136647204Y-110120902D01*
X136156713Y-109917232D01*
X135625617Y-109916769D01*
X135134771Y-110119582D01*
X134758902Y-110494796D01*
X134619909Y-110829527D01*
X134482418Y-110496771D01*
X134107204Y-110120902D01*
X133616713Y-109917232D01*
X133085617Y-109916769D01*
X132594771Y-110119582D01*
X132218902Y-110494796D01*
X132079909Y-110829527D01*
X131942418Y-110496771D01*
X131567204Y-110120902D01*
X131232473Y-109981909D01*
X131565229Y-109844418D01*
X131941098Y-109469204D01*
X132144768Y-108978713D01*
X132145231Y-108447617D01*
X131942418Y-107956771D01*
X131567204Y-107580902D01*
X131232473Y-107441909D01*
X131565229Y-107304418D01*
X131941098Y-106929204D01*
X132144768Y-106438713D01*
X132145231Y-105907617D01*
X132090849Y-105776000D01*
X133322560Y-105776000D01*
X133322560Y-107076000D01*
X133366838Y-107311317D01*
X133505910Y-107527441D01*
X133718110Y-107672431D01*
X133970000Y-107723440D01*
X134165460Y-107723440D01*
X133893057Y-107835995D01*
X133531265Y-108197155D01*
X133335223Y-108669276D01*
X133334777Y-109180481D01*
X133529995Y-109652943D01*
X133891155Y-110014735D01*
X134363276Y-110210777D01*
X134874481Y-110211223D01*
X135346943Y-110016005D01*
X135708735Y-109654845D01*
X135904777Y-109182724D01*
X135905223Y-108671519D01*
X135710005Y-108199057D01*
X135348845Y-107837265D01*
X135074724Y-107723440D01*
X135270000Y-107723440D01*
X135505317Y-107679162D01*
X135721441Y-107540090D01*
X135761071Y-107482089D01*
X136182743Y-107482089D01*
X136408344Y-108028086D01*
X136825717Y-108446188D01*
X137371319Y-108672742D01*
X137962089Y-108673257D01*
X138508086Y-108447656D01*
X138724160Y-108231958D01*
X143407647Y-108231958D01*
X143487920Y-108483259D01*
X144043279Y-108684718D01*
X144633458Y-108658315D01*
X145056080Y-108483259D01*
X145136353Y-108231958D01*
X144272000Y-107367605D01*
X143407647Y-108231958D01*
X138724160Y-108231958D01*
X138926188Y-108030283D01*
X139152742Y-107484681D01*
X139153200Y-106959279D01*
X142775282Y-106959279D01*
X142801685Y-107549458D01*
X142976741Y-107972080D01*
X143228042Y-108052353D01*
X144092395Y-107188000D01*
X144451605Y-107188000D01*
X145315958Y-108052353D01*
X145567259Y-107972080D01*
X145768718Y-107416721D01*
X145742315Y-106826542D01*
X145567259Y-106403920D01*
X145315958Y-106323647D01*
X144451605Y-107188000D01*
X144092395Y-107188000D01*
X143228042Y-106323647D01*
X142976741Y-106403920D01*
X142775282Y-106959279D01*
X139153200Y-106959279D01*
X139153257Y-106893911D01*
X138927656Y-106347914D01*
X138724140Y-106144042D01*
X143407647Y-106144042D01*
X144272000Y-107008395D01*
X145136353Y-106144042D01*
X145056080Y-105892741D01*
X144500721Y-105691282D01*
X143910542Y-105717685D01*
X143487920Y-105892741D01*
X143407647Y-106144042D01*
X138724140Y-106144042D01*
X138510283Y-105929812D01*
X137964681Y-105703258D01*
X137373911Y-105702743D01*
X136827914Y-105928344D01*
X136409812Y-106345717D01*
X136183258Y-106891319D01*
X136182743Y-107482089D01*
X135761071Y-107482089D01*
X135866431Y-107327890D01*
X135917440Y-107076000D01*
X135917440Y-105776000D01*
X135893674Y-105649691D01*
X146289000Y-105649691D01*
X146289000Y-106140250D01*
X146447750Y-106299000D01*
X147447000Y-106299000D01*
X147447000Y-105299750D01*
X147701000Y-105299750D01*
X147701000Y-106299000D01*
X148700250Y-106299000D01*
X148859000Y-106140250D01*
X148859000Y-105649691D01*
X148762327Y-105416302D01*
X148583699Y-105237673D01*
X148350310Y-105141000D01*
X147859750Y-105141000D01*
X147701000Y-105299750D01*
X147447000Y-105299750D01*
X147288250Y-105141000D01*
X146797690Y-105141000D01*
X146564301Y-105237673D01*
X146385673Y-105416302D01*
X146289000Y-105649691D01*
X135893674Y-105649691D01*
X135873162Y-105540683D01*
X135734090Y-105324559D01*
X135521890Y-105179569D01*
X135270000Y-105128560D01*
X133970000Y-105128560D01*
X133734683Y-105172838D01*
X133518559Y-105311910D01*
X133373569Y-105524110D01*
X133322560Y-105776000D01*
X132090849Y-105776000D01*
X131942418Y-105416771D01*
X131567204Y-105040902D01*
X131232473Y-104901909D01*
X131565229Y-104764418D01*
X131941098Y-104389204D01*
X132144768Y-103898713D01*
X132144972Y-103663750D01*
X145527000Y-103663750D01*
X145527000Y-104154310D01*
X145623673Y-104387699D01*
X145802302Y-104566327D01*
X146035691Y-104663000D01*
X146526250Y-104663000D01*
X146685000Y-104504250D01*
X146685000Y-103505000D01*
X145685750Y-103505000D01*
X145527000Y-103663750D01*
X132144972Y-103663750D01*
X132145231Y-103367617D01*
X131942418Y-102876771D01*
X131667817Y-102601690D01*
X145527000Y-102601690D01*
X145527000Y-103092250D01*
X145685750Y-103251000D01*
X146685000Y-103251000D01*
X146685000Y-102251750D01*
X146939000Y-102251750D01*
X146939000Y-103251000D01*
X146959000Y-103251000D01*
X146959000Y-103505000D01*
X146939000Y-103505000D01*
X146939000Y-104504250D01*
X147097750Y-104663000D01*
X147588309Y-104663000D01*
X147821698Y-104566327D01*
X148000327Y-104387699D01*
X148097000Y-104154310D01*
X148097000Y-103802433D01*
X148221995Y-104104943D01*
X148583155Y-104466735D01*
X149055276Y-104662777D01*
X149566481Y-104663223D01*
X150038943Y-104468005D01*
X150400735Y-104106845D01*
X150596777Y-103634724D01*
X150597223Y-103123519D01*
X150402005Y-102651057D01*
X150397144Y-102646187D01*
X163664752Y-102646187D01*
X163882757Y-103173800D01*
X164286077Y-103577824D01*
X164416215Y-103631862D01*
X164288200Y-103684757D01*
X163884176Y-104088077D01*
X163665250Y-104615309D01*
X163664752Y-105186187D01*
X163882757Y-105713800D01*
X164286077Y-106117824D01*
X164416215Y-106171862D01*
X164288200Y-106224757D01*
X163884176Y-106628077D01*
X163665250Y-107155309D01*
X163664752Y-107726187D01*
X163882757Y-108253800D01*
X164286077Y-108657824D01*
X164813309Y-108876750D01*
X165384187Y-108877248D01*
X165911800Y-108659243D01*
X166121663Y-108449745D01*
X166811861Y-108449745D01*
X166885995Y-108695864D01*
X167423223Y-108888965D01*
X167993454Y-108861778D01*
X168394005Y-108695864D01*
X168468139Y-108449745D01*
X167640000Y-107621605D01*
X166811861Y-108449745D01*
X166121663Y-108449745D01*
X166315824Y-108255923D01*
X166363448Y-108141232D01*
X166386136Y-108196005D01*
X166632255Y-108270139D01*
X167460395Y-107442000D01*
X167819605Y-107442000D01*
X168647745Y-108270139D01*
X168893864Y-108196005D01*
X169086965Y-107658777D01*
X169059778Y-107088546D01*
X168893864Y-106687995D01*
X168647745Y-106613861D01*
X167819605Y-107442000D01*
X167460395Y-107442000D01*
X166632255Y-106613861D01*
X166386136Y-106687995D01*
X166365195Y-106746254D01*
X166317243Y-106630200D01*
X165913923Y-106226176D01*
X165783785Y-106172138D01*
X165911800Y-106119243D01*
X166315824Y-105715923D01*
X166369862Y-105585785D01*
X166422757Y-105713800D01*
X166826077Y-106117824D01*
X166940768Y-106165448D01*
X166885995Y-106188136D01*
X166811861Y-106434255D01*
X167640000Y-107262395D01*
X168468139Y-106434255D01*
X168394005Y-106188136D01*
X168335746Y-106167195D01*
X168451800Y-106119243D01*
X168855824Y-105715923D01*
X169074750Y-105188691D01*
X169075248Y-104617813D01*
X168857243Y-104090200D01*
X168453923Y-103686176D01*
X168323785Y-103632138D01*
X168451800Y-103579243D01*
X168855824Y-103175923D01*
X169074750Y-102648691D01*
X169075248Y-102077813D01*
X168857243Y-101550200D01*
X168453923Y-101146176D01*
X167926691Y-100927250D01*
X167355813Y-100926752D01*
X166828200Y-101144757D01*
X166424176Y-101548077D01*
X166370138Y-101678215D01*
X166317243Y-101550200D01*
X165913923Y-101146176D01*
X165386691Y-100927250D01*
X164815813Y-100926752D01*
X164288200Y-101144757D01*
X163884176Y-101548077D01*
X163665250Y-102075309D01*
X163664752Y-102646187D01*
X150397144Y-102646187D01*
X150040845Y-102289265D01*
X149568724Y-102093223D01*
X149057519Y-102092777D01*
X148585057Y-102287995D01*
X148223265Y-102649155D01*
X148097000Y-102953235D01*
X148097000Y-102601690D01*
X148000327Y-102368301D01*
X147821698Y-102189673D01*
X147588309Y-102093000D01*
X147097750Y-102093000D01*
X146939000Y-102251750D01*
X146685000Y-102251750D01*
X146526250Y-102093000D01*
X146035691Y-102093000D01*
X145802302Y-102189673D01*
X145623673Y-102368301D01*
X145527000Y-102601690D01*
X131667817Y-102601690D01*
X131567204Y-102500902D01*
X131232473Y-102361909D01*
X131565229Y-102224418D01*
X131941098Y-101849204D01*
X132144768Y-101358713D01*
X132145231Y-100827617D01*
X131942418Y-100336771D01*
X131567204Y-99960902D01*
X131248788Y-99828684D01*
X131503831Y-99723042D01*
X131565669Y-99487275D01*
X147834331Y-99487275D01*
X147896169Y-99723042D01*
X148397122Y-99899419D01*
X148927440Y-99870664D01*
X149283831Y-99723042D01*
X149345669Y-99487275D01*
X148590000Y-98731605D01*
X147834331Y-99487275D01*
X131565669Y-99487275D01*
X130810000Y-98731605D01*
X130054331Y-99487275D01*
X130116169Y-99723042D01*
X130392111Y-99820196D01*
X130054771Y-99959582D01*
X129678902Y-100334796D01*
X129475232Y-100825287D01*
X129474769Y-101356383D01*
X129677582Y-101847229D01*
X130052796Y-102223098D01*
X130387527Y-102362091D01*
X130054771Y-102499582D01*
X129678902Y-102874796D01*
X129475232Y-103365287D01*
X129474769Y-103896383D01*
X129677582Y-104387229D01*
X130052796Y-104763098D01*
X130387527Y-104902091D01*
X130054771Y-105039582D01*
X129678902Y-105414796D01*
X129475232Y-105905287D01*
X129474769Y-106436383D01*
X129677582Y-106927229D01*
X130052796Y-107303098D01*
X130387527Y-107442091D01*
X130054771Y-107579582D01*
X129678902Y-107954796D01*
X129475232Y-108445287D01*
X129474769Y-108976383D01*
X129677582Y-109467229D01*
X130052796Y-109843098D01*
X130387527Y-109982091D01*
X130054771Y-110119582D01*
X129678902Y-110494796D01*
X129475232Y-110985287D01*
X129474769Y-111516383D01*
X129596915Y-111812000D01*
X128980000Y-111812000D01*
X128980000Y-97992000D01*
X129591838Y-97992000D01*
X129462581Y-98359122D01*
X129462581Y-98359122D01*
G37*
X129462581Y-98359122D02*
X129491336Y-98889440D01*
X129638958Y-99245831D01*
X129874725Y-99307669D01*
X130630395Y-98552000D01*
X130616252Y-98537858D01*
X130795858Y-98358252D01*
X130810000Y-98372395D01*
X130824142Y-98358252D01*
X131003748Y-98537858D01*
X130989605Y-98552000D01*
X131745275Y-99307669D01*
X131981042Y-99245831D01*
X132157419Y-98744878D01*
X132128664Y-98214560D01*
X132036477Y-97992000D01*
X147371838Y-97992000D01*
X147242581Y-98359122D01*
X147271336Y-98889440D01*
X147418958Y-99245831D01*
X147654725Y-99307669D01*
X148410395Y-98552000D01*
X148396252Y-98537858D01*
X148575858Y-98358252D01*
X148590000Y-98372395D01*
X148604142Y-98358252D01*
X148783748Y-98537858D01*
X148769605Y-98552000D01*
X149525275Y-99307669D01*
X149761042Y-99245831D01*
X149937419Y-98744878D01*
X149908664Y-98214560D01*
X149816477Y-97992000D01*
X152457016Y-97992000D01*
X152335232Y-98285287D01*
X152334769Y-98816383D01*
X152537582Y-99307229D01*
X152912796Y-99683098D01*
X153403287Y-99886768D01*
X153934383Y-99887231D01*
X154425229Y-99684418D01*
X154801098Y-99309204D01*
X154940091Y-98974473D01*
X155077582Y-99307229D01*
X155452796Y-99683098D01*
X155943287Y-99886768D01*
X156474383Y-99887231D01*
X156965229Y-99684418D01*
X157341098Y-99309204D01*
X157480091Y-98974473D01*
X157617582Y-99307229D01*
X157992796Y-99683098D01*
X158483287Y-99886768D01*
X159014383Y-99887231D01*
X159505229Y-99684418D01*
X159881098Y-99309204D01*
X160020091Y-98974473D01*
X160157582Y-99307229D01*
X160532796Y-99683098D01*
X161023287Y-99886768D01*
X161554383Y-99887231D01*
X162045229Y-99684418D01*
X162421098Y-99309204D01*
X162624768Y-98818713D01*
X162625231Y-98287617D01*
X162503085Y-97992000D01*
X169089000Y-97992000D01*
X169089000Y-111812000D01*
X157490117Y-111812000D01*
X157606757Y-111531100D01*
X157607242Y-110975339D01*
X157395010Y-110461697D01*
X157002370Y-110068371D01*
X156489100Y-109855243D01*
X155933339Y-109854758D01*
X155419697Y-110066990D01*
X155026371Y-110459630D01*
X154940051Y-110667512D01*
X154855010Y-110461697D01*
X154462370Y-110068371D01*
X153949100Y-109855243D01*
X153393339Y-109854758D01*
X152879697Y-110066990D01*
X152486371Y-110459630D01*
X152373159Y-110732275D01*
X152301042Y-110558169D01*
X152065275Y-110496331D01*
X151309605Y-111252000D01*
X151323748Y-111266142D01*
X151144142Y-111445748D01*
X151130000Y-111431605D01*
X151115858Y-111445748D01*
X150936252Y-111266142D01*
X150950395Y-111252000D01*
X150194725Y-110496331D01*
X149958958Y-110558169D01*
X149861804Y-110834111D01*
X149722418Y-110496771D01*
X149542686Y-110316725D01*
X150374331Y-110316725D01*
X151130000Y-111072395D01*
X151885669Y-110316725D01*
X151823831Y-110080958D01*
X151322878Y-109904581D01*
X150792560Y-109933336D01*
X150436169Y-110080958D01*
X150374331Y-110316725D01*
X149542686Y-110316725D01*
X149347204Y-110120902D01*
X148856713Y-109917232D01*
X148400287Y-109916834D01*
X148662735Y-109654845D01*
X148858777Y-109182724D01*
X148859223Y-108671519D01*
X148664005Y-108199057D01*
X148302845Y-107837265D01*
X148011765Y-107716398D01*
X151113250Y-107716398D01*
X151323746Y-108225837D01*
X151713173Y-108615944D01*
X152222244Y-108827329D01*
X152773458Y-108827810D01*
X153282897Y-108617314D01*
X153673004Y-108227887D01*
X153884389Y-107718816D01*
X153884391Y-107716398D01*
X155995130Y-107716398D01*
X156205626Y-108225837D01*
X156595053Y-108615944D01*
X157104124Y-108827329D01*
X157655338Y-108827810D01*
X158164777Y-108617314D01*
X158554884Y-108227887D01*
X158766269Y-107718816D01*
X158766750Y-107167602D01*
X158556254Y-106658163D01*
X158166827Y-106268056D01*
X157657756Y-106056671D01*
X157106542Y-106056190D01*
X156597103Y-106266686D01*
X156206996Y-106656113D01*
X155995611Y-107165184D01*
X155995130Y-107716398D01*
X153884391Y-107716398D01*
X153884870Y-107167602D01*
X153674374Y-106658163D01*
X153284947Y-106268056D01*
X152775876Y-106056671D01*
X152224662Y-106056190D01*
X151715223Y-106266686D01*
X151325116Y-106656113D01*
X151113731Y-107165184D01*
X151113250Y-107716398D01*
X148011765Y-107716398D01*
X147998765Y-107711000D01*
X148350310Y-107711000D01*
X148583699Y-107614327D01*
X148762327Y-107435698D01*
X148859000Y-107202309D01*
X148859000Y-106711750D01*
X148700250Y-106553000D01*
X147701000Y-106553000D01*
X147701000Y-106573000D01*
X147447000Y-106573000D01*
X147447000Y-106553000D01*
X146447750Y-106553000D01*
X146289000Y-106711750D01*
X146289000Y-107202309D01*
X146385673Y-107435698D01*
X146564301Y-107614327D01*
X146797690Y-107711000D01*
X147149567Y-107711000D01*
X146847057Y-107835995D01*
X146485265Y-108197155D01*
X146289223Y-108669276D01*
X146288777Y-109180481D01*
X146483995Y-109652943D01*
X146845155Y-110014735D01*
X147317276Y-110210777D01*
X147743045Y-110211148D01*
X147458902Y-110494796D01*
X147255232Y-110985287D01*
X147254769Y-111516383D01*
X147376915Y-111812000D01*
X139642984Y-111812000D01*
X139764768Y-111518713D01*
X139765231Y-110987617D01*
X139562418Y-110496771D01*
X139187204Y-110120902D01*
X138696713Y-109917232D01*
X138165617Y-109916769D01*
X137674771Y-110119582D01*
X137298902Y-110494796D01*
X137159909Y-110829527D01*
X137022418Y-110496771D01*
X136647204Y-110120902D01*
X136156713Y-109917232D01*
X135625617Y-109916769D01*
X135134771Y-110119582D01*
X134758902Y-110494796D01*
X134619909Y-110829527D01*
X134482418Y-110496771D01*
X134107204Y-110120902D01*
X133616713Y-109917232D01*
X133085617Y-109916769D01*
X132594771Y-110119582D01*
X132218902Y-110494796D01*
X132079909Y-110829527D01*
X131942418Y-110496771D01*
X131567204Y-110120902D01*
X131232473Y-109981909D01*
X131565229Y-109844418D01*
X131941098Y-109469204D01*
X132144768Y-108978713D01*
X132145231Y-108447617D01*
X131942418Y-107956771D01*
X131567204Y-107580902D01*
X131232473Y-107441909D01*
X131565229Y-107304418D01*
X131941098Y-106929204D01*
X132144768Y-106438713D01*
X132145231Y-105907617D01*
X132090849Y-105776000D01*
X133322560Y-105776000D01*
X133322560Y-107076000D01*
X133366838Y-107311317D01*
X133505910Y-107527441D01*
X133718110Y-107672431D01*
X133970000Y-107723440D01*
X134165460Y-107723440D01*
X133893057Y-107835995D01*
X133531265Y-108197155D01*
X133335223Y-108669276D01*
X133334777Y-109180481D01*
X133529995Y-109652943D01*
X133891155Y-110014735D01*
X134363276Y-110210777D01*
X134874481Y-110211223D01*
X135346943Y-110016005D01*
X135708735Y-109654845D01*
X135904777Y-109182724D01*
X135905223Y-108671519D01*
X135710005Y-108199057D01*
X135348845Y-107837265D01*
X135074724Y-107723440D01*
X135270000Y-107723440D01*
X135505317Y-107679162D01*
X135721441Y-107540090D01*
X135761071Y-107482089D01*
X136182743Y-107482089D01*
X136408344Y-108028086D01*
X136825717Y-108446188D01*
X137371319Y-108672742D01*
X137962089Y-108673257D01*
X138508086Y-108447656D01*
X138724160Y-108231958D01*
X143407647Y-108231958D01*
X143487920Y-108483259D01*
X144043279Y-108684718D01*
X144633458Y-108658315D01*
X145056080Y-108483259D01*
X145136353Y-108231958D01*
X144272000Y-107367605D01*
X143407647Y-108231958D01*
X138724160Y-108231958D01*
X138926188Y-108030283D01*
X139152742Y-107484681D01*
X139153200Y-106959279D01*
X142775282Y-106959279D01*
X142801685Y-107549458D01*
X142976741Y-107972080D01*
X143228042Y-108052353D01*
X144092395Y-107188000D01*
X144451605Y-107188000D01*
X145315958Y-108052353D01*
X145567259Y-107972080D01*
X145768718Y-107416721D01*
X145742315Y-106826542D01*
X145567259Y-106403920D01*
X145315958Y-106323647D01*
X144451605Y-107188000D01*
X144092395Y-107188000D01*
X143228042Y-106323647D01*
X142976741Y-106403920D01*
X142775282Y-106959279D01*
X139153200Y-106959279D01*
X139153257Y-106893911D01*
X138927656Y-106347914D01*
X138724140Y-106144042D01*
X143407647Y-106144042D01*
X144272000Y-107008395D01*
X145136353Y-106144042D01*
X145056080Y-105892741D01*
X144500721Y-105691282D01*
X143910542Y-105717685D01*
X143487920Y-105892741D01*
X143407647Y-106144042D01*
X138724140Y-106144042D01*
X138510283Y-105929812D01*
X137964681Y-105703258D01*
X137373911Y-105702743D01*
X136827914Y-105928344D01*
X136409812Y-106345717D01*
X136183258Y-106891319D01*
X136182743Y-107482089D01*
X135761071Y-107482089D01*
X135866431Y-107327890D01*
X135917440Y-107076000D01*
X135917440Y-105776000D01*
X135893674Y-105649691D01*
X146289000Y-105649691D01*
X146289000Y-106140250D01*
X146447750Y-106299000D01*
X147447000Y-106299000D01*
X147447000Y-105299750D01*
X147701000Y-105299750D01*
X147701000Y-106299000D01*
X148700250Y-106299000D01*
X148859000Y-106140250D01*
X148859000Y-105649691D01*
X148762327Y-105416302D01*
X148583699Y-105237673D01*
X148350310Y-105141000D01*
X147859750Y-105141000D01*
X147701000Y-105299750D01*
X147447000Y-105299750D01*
X147288250Y-105141000D01*
X146797690Y-105141000D01*
X146564301Y-105237673D01*
X146385673Y-105416302D01*
X146289000Y-105649691D01*
X135893674Y-105649691D01*
X135873162Y-105540683D01*
X135734090Y-105324559D01*
X135521890Y-105179569D01*
X135270000Y-105128560D01*
X133970000Y-105128560D01*
X133734683Y-105172838D01*
X133518559Y-105311910D01*
X133373569Y-105524110D01*
X133322560Y-105776000D01*
X132090849Y-105776000D01*
X131942418Y-105416771D01*
X131567204Y-105040902D01*
X131232473Y-104901909D01*
X131565229Y-104764418D01*
X131941098Y-104389204D01*
X132144768Y-103898713D01*
X132144972Y-103663750D01*
X145527000Y-103663750D01*
X145527000Y-104154310D01*
X145623673Y-104387699D01*
X145802302Y-104566327D01*
X146035691Y-104663000D01*
X146526250Y-104663000D01*
X146685000Y-104504250D01*
X146685000Y-103505000D01*
X145685750Y-103505000D01*
X145527000Y-103663750D01*
X132144972Y-103663750D01*
X132145231Y-103367617D01*
X131942418Y-102876771D01*
X131667817Y-102601690D01*
X145527000Y-102601690D01*
X145527000Y-103092250D01*
X145685750Y-103251000D01*
X146685000Y-103251000D01*
X146685000Y-102251750D01*
X146939000Y-102251750D01*
X146939000Y-103251000D01*
X146959000Y-103251000D01*
X146959000Y-103505000D01*
X146939000Y-103505000D01*
X146939000Y-104504250D01*
X147097750Y-104663000D01*
X147588309Y-104663000D01*
X147821698Y-104566327D01*
X148000327Y-104387699D01*
X148097000Y-104154310D01*
X148097000Y-103802433D01*
X148221995Y-104104943D01*
X148583155Y-104466735D01*
X149055276Y-104662777D01*
X149566481Y-104663223D01*
X150038943Y-104468005D01*
X150400735Y-104106845D01*
X150596777Y-103634724D01*
X150597223Y-103123519D01*
X150402005Y-102651057D01*
X150397144Y-102646187D01*
X163664752Y-102646187D01*
X163882757Y-103173800D01*
X164286077Y-103577824D01*
X164416215Y-103631862D01*
X164288200Y-103684757D01*
X163884176Y-104088077D01*
X163665250Y-104615309D01*
X163664752Y-105186187D01*
X163882757Y-105713800D01*
X164286077Y-106117824D01*
X164416215Y-106171862D01*
X164288200Y-106224757D01*
X163884176Y-106628077D01*
X163665250Y-107155309D01*
X163664752Y-107726187D01*
X163882757Y-108253800D01*
X164286077Y-108657824D01*
X164813309Y-108876750D01*
X165384187Y-108877248D01*
X165911800Y-108659243D01*
X166121663Y-108449745D01*
X166811861Y-108449745D01*
X166885995Y-108695864D01*
X167423223Y-108888965D01*
X167993454Y-108861778D01*
X168394005Y-108695864D01*
X168468139Y-108449745D01*
X167640000Y-107621605D01*
X166811861Y-108449745D01*
X166121663Y-108449745D01*
X166315824Y-108255923D01*
X166363448Y-108141232D01*
X166386136Y-108196005D01*
X166632255Y-108270139D01*
X167460395Y-107442000D01*
X167819605Y-107442000D01*
X168647745Y-108270139D01*
X168893864Y-108196005D01*
X169086965Y-107658777D01*
X169059778Y-107088546D01*
X168893864Y-106687995D01*
X168647745Y-106613861D01*
X167819605Y-107442000D01*
X167460395Y-107442000D01*
X166632255Y-106613861D01*
X166386136Y-106687995D01*
X166365195Y-106746254D01*
X166317243Y-106630200D01*
X165913923Y-106226176D01*
X165783785Y-106172138D01*
X165911800Y-106119243D01*
X166315824Y-105715923D01*
X166369862Y-105585785D01*
X166422757Y-105713800D01*
X166826077Y-106117824D01*
X166940768Y-106165448D01*
X166885995Y-106188136D01*
X166811861Y-106434255D01*
X167640000Y-107262395D01*
X168468139Y-106434255D01*
X168394005Y-106188136D01*
X168335746Y-106167195D01*
X168451800Y-106119243D01*
X168855824Y-105715923D01*
X169074750Y-105188691D01*
X169075248Y-104617813D01*
X168857243Y-104090200D01*
X168453923Y-103686176D01*
X168323785Y-103632138D01*
X168451800Y-103579243D01*
X168855824Y-103175923D01*
X169074750Y-102648691D01*
X169075248Y-102077813D01*
X168857243Y-101550200D01*
X168453923Y-101146176D01*
X167926691Y-100927250D01*
X167355813Y-100926752D01*
X166828200Y-101144757D01*
X166424176Y-101548077D01*
X166370138Y-101678215D01*
X166317243Y-101550200D01*
X165913923Y-101146176D01*
X165386691Y-100927250D01*
X164815813Y-100926752D01*
X164288200Y-101144757D01*
X163884176Y-101548077D01*
X163665250Y-102075309D01*
X163664752Y-102646187D01*
X150397144Y-102646187D01*
X150040845Y-102289265D01*
X149568724Y-102093223D01*
X149057519Y-102092777D01*
X148585057Y-102287995D01*
X148223265Y-102649155D01*
X148097000Y-102953235D01*
X148097000Y-102601690D01*
X148000327Y-102368301D01*
X147821698Y-102189673D01*
X147588309Y-102093000D01*
X147097750Y-102093000D01*
X146939000Y-102251750D01*
X146685000Y-102251750D01*
X146526250Y-102093000D01*
X146035691Y-102093000D01*
X145802302Y-102189673D01*
X145623673Y-102368301D01*
X145527000Y-102601690D01*
X131667817Y-102601690D01*
X131567204Y-102500902D01*
X131232473Y-102361909D01*
X131565229Y-102224418D01*
X131941098Y-101849204D01*
X132144768Y-101358713D01*
X132145231Y-100827617D01*
X131942418Y-100336771D01*
X131567204Y-99960902D01*
X131248788Y-99828684D01*
X131503831Y-99723042D01*
X131565669Y-99487275D01*
X147834331Y-99487275D01*
X147896169Y-99723042D01*
X148397122Y-99899419D01*
X148927440Y-99870664D01*
X149283831Y-99723042D01*
X149345669Y-99487275D01*
X148590000Y-98731605D01*
X147834331Y-99487275D01*
X131565669Y-99487275D01*
X130810000Y-98731605D01*
X130054331Y-99487275D01*
X130116169Y-99723042D01*
X130392111Y-99820196D01*
X130054771Y-99959582D01*
X129678902Y-100334796D01*
X129475232Y-100825287D01*
X129474769Y-101356383D01*
X129677582Y-101847229D01*
X130052796Y-102223098D01*
X130387527Y-102362091D01*
X130054771Y-102499582D01*
X129678902Y-102874796D01*
X129475232Y-103365287D01*
X129474769Y-103896383D01*
X129677582Y-104387229D01*
X130052796Y-104763098D01*
X130387527Y-104902091D01*
X130054771Y-105039582D01*
X129678902Y-105414796D01*
X129475232Y-105905287D01*
X129474769Y-106436383D01*
X129677582Y-106927229D01*
X130052796Y-107303098D01*
X130387527Y-107442091D01*
X130054771Y-107579582D01*
X129678902Y-107954796D01*
X129475232Y-108445287D01*
X129474769Y-108976383D01*
X129677582Y-109467229D01*
X130052796Y-109843098D01*
X130387527Y-109982091D01*
X130054771Y-110119582D01*
X129678902Y-110494796D01*
X129475232Y-110985287D01*
X129474769Y-111516383D01*
X129596915Y-111812000D01*
X128980000Y-111812000D01*
X128980000Y-97992000D01*
X129591838Y-97992000D01*
X129462581Y-98359122D01*
M02*
